<svg width="74" height="74" viewBox="0 0 74 74" fill="none" xmlns="http://www.w3.org/2000/svg">
<rect width="74" height="74" rx="37" fill="white"/>
<path d="M54.4734 17V57H26.2227V25.3893L26.2251 25.3868L34.5933 17.018L34.611 17H54.4734Z" fill="#E0E4FA"/>
<path d="M40.3484 17H54.4734V57H40.3484V17Z" fill="#C4C9F7"/>
<path d="M34.5933 17.0179V25.3868H26.2251L34.5933 17.0179Z" fill="#97A1F0"/>
<path d="M27.0207 44.1552H22.3225L24.3922 52.6033H29.0904L27.0207 44.1552Z" fill="#4B5BE4"/>
<path d="M44.7747 40.2916C44.7747 43.1005 42.4898 45.3853 39.6807 45.3853V35.1976C42.4898 35.1976 44.7747 37.4825 44.7747 40.2916Z" fill="#FFDF48"/>
<path d="M44.7747 40.2916C44.7747 43.1005 42.4898 45.3853 39.6807 45.3853V40.2916H44.7747Z" fill="#FEC000"/>
<path d="M40.3483 30.1335V50.4494L26.0383 45.0292V35.5538L40.3483 30.1335Z" fill="#FF623F"/>
<path d="M40.3483 40.2916V50.4494L26.0383 45.0292V40.2916H40.3483Z" fill="#E70020"/>
<path d="M19.5781 35.1915H26.9966V45.3914H19.5781V35.1915Z" fill="#FFB74F"/>
<path d="M19.5781 40.2916H26.9966V45.3914H19.5781V40.2916Z" fill="#FF9A00"/>
</svg>
