<svg width="74" height="74" viewBox="0 0 74 74" fill="none" xmlns="http://www.w3.org/2000/svg">
<rect width="74" height="74" rx="37" fill="white"/>
<path d="M47.6035 20.9695C46.198 20.9695 44.9355 21.5898 44.073 22.571C43.2105 21.5898 41.948 20.9695 40.5426 20.9695C37.9496 20.9695 35.8402 23.0789 35.8402 25.6718C35.8402 28.2648 37.9496 30.3742 40.5426 30.3742H47.6035C50.1965 30.3742 52.3058 28.2648 52.3058 25.6718C52.3058 23.0789 50.1965 20.9695 47.6035 20.9695ZM42.9011 28.8117L40.5426 28.0304C39.2426 28.0304 38.184 26.9718 38.184 25.6718C38.184 24.371 39.2426 23.3132 40.5426 23.3132C41.8433 23.3132 42.9011 24.371 42.9011 25.6718V28.8117ZM47.6035 28.0304L45.2449 28.8117V25.6718C45.2449 24.371 46.3027 23.3132 47.6035 23.3132C48.9035 23.3132 49.9621 24.371 49.9621 25.6718C49.9621 26.9726 48.9035 28.0304 47.6035 28.0304Z" fill="#FFC648"/>
<path d="M47.6035 20.9695C46.198 20.9695 44.9355 21.5898 44.073 22.571V30.3742H47.6035C50.1964 30.3742 52.3058 28.2648 52.3058 25.6718C52.3058 23.0789 50.1964 20.9695 47.6035 20.9695ZM47.6035 28.0304L45.2449 28.8117V25.6718C45.2449 24.371 46.3027 23.3132 47.6035 23.3132C48.9035 23.3132 49.9621 24.371 49.9621 25.6718C49.9621 26.9726 48.9035 28.0304 47.6035 28.0304Z" fill="#FC9D56"/>
<path d="M53.4641 37.0532C52.5594 37.9586 52 39.2086 52 40.5891C52 43.35 54.2383 45.5891 57 45.5891V53.0297H46.5875L44.0727 52.0524L41.5727 53.0297H17V45.5891C18.3813 45.5891 19.6312 45.029 20.5359 44.1243C21.4406 43.2196 22 41.9696 22 40.5891C22 39.2086 21.4406 37.9586 20.5359 37.0532C19.6312 36.1485 18.3813 35.5891 17 35.5891V28.0305H41.5727L44.0727 28.8993L46.5727 28.0305H57V35.5891C55.6188 35.5891 54.3687 36.1485 53.4641 37.0532Z" fill="#FD5E60"/>
<path d="M53.464 37.0532C52.5594 37.9586 52 39.2086 52 40.5891C52 43.35 54.2383 45.5891 57 45.5891V53.0297H46.5875L44.0726 52.0524V28.8993L46.5726 28.0305H57V35.5891C55.6187 35.5891 54.3687 36.1485 53.464 37.0532Z" fill="#E21759"/>
<path d="M27.5908 35.9045H29.9346V38.2483H27.5908V35.9045Z" fill="#F4F1F1"/>
<path d="M34.6515 43.0044H36.9952V45.3481H34.6515V43.0044Z" fill="#F4F1F1"/>
<path d="M27.6206 43.6279L35.3645 35.884L37.0216 37.541L29.2776 45.285L27.6206 43.6279Z" fill="#F4F1F1"/>
<path d="M41.573 28.0295H46.573V53.0303H41.573V28.0295Z" fill="#FFF066"/>
<path d="M44.073 28.0295H46.573V53.0303H44.073V28.0295Z" fill="#FFC648"/>
</svg>
