<svg width="74" height="74" viewBox="0 0 74 74" fill="none" xmlns="http://www.w3.org/2000/svg">
<rect width="74" height="74" rx="37" fill="white"/>
<path d="M54.63 36.2572H19.37C19.37 32.9918 22.0262 30.3356 25.2913 30.3356C25.4543 30.3356 25.6169 30.3423 25.7784 30.3554C26.3045 27.6973 28.6153 25.6734 31.4052 25.5886C31.7433 24.616 32.3333 23.7395 33.1224 23.0553C34.1982 22.123 35.5751 21.6094 37 21.6094C38.4249 21.6094 39.8018 22.123 40.8776 23.0553C41.6667 23.7395 42.2567 24.616 42.5948 25.5886C45.3847 25.6734 47.6955 27.6973 48.2216 30.3554C48.3831 30.3423 48.5454 30.3356 48.7084 30.3356C51.9738 30.3356 54.63 32.9918 54.63 36.2572Z" fill="#FDBB45"/>
<path d="M48.7087 30.3356C48.5457 30.3356 48.3831 30.3423 48.2216 30.3554C47.6955 27.6973 45.3847 25.6734 42.5948 25.5886C42.2567 24.616 41.6667 23.7395 40.8776 23.0553C39.8018 22.123 38.4249 21.6094 37 21.6094V36.2572H54.63C54.63 32.9918 51.9738 30.3356 48.7087 30.3356Z" fill="#FDA338"/>
<path d="M54.0425 52.413H20.0478L17.047 48.8428L19.4155 36.0278L54.6111 36.0303L56.9496 48.8318L54.0425 52.413Z" fill="#FC4A8D"/>
<path d="M56.9496 48.8315L54.6111 36.03L37 36.0288V52.4128H54.0425L56.9496 48.8315Z" fill="#D52D78"/>
<path d="M28.8038 49.6963C28.7147 49.6963 28.625 49.6924 28.5347 49.6844C27.0842 49.5584 25.9089 48.3676 25.8012 46.9147C25.7744 46.5539 25.8113 46.1966 25.9111 45.8523C26.0637 45.3253 26.0637 44.7683 25.9111 44.2413C25.8113 43.8974 25.7744 43.54 25.8012 43.179C25.9089 41.7261 27.0842 40.5356 28.5347 40.4092C29.7877 40.3003 30.9236 40.9613 31.4686 42.0102H42.5313C43.0763 40.9613 44.2119 40.3 45.4655 40.4092C46.916 40.5356 48.0909 41.7261 48.1987 43.179C48.2255 43.54 48.1886 43.8971 48.0891 44.2413C47.9365 44.7683 47.9365 45.3253 48.0891 45.852C48.1886 46.1966 48.2255 46.5539 48.1987 46.915C48.0909 48.3676 46.916 49.5584 45.4655 49.6844C44.2116 49.794 43.0763 49.1324 42.5313 48.0835H31.4686C30.963 49.0567 29.9489 49.6963 28.8038 49.6963Z" fill="white"/>
<path d="M48.1987 43.179C48.091 41.7261 46.9158 40.5356 45.4653 40.4092C44.2116 40.3 43.0764 40.9613 42.5313 42.0102H37V48.0835H42.5313C43.0764 49.1324 44.2116 49.794 45.4653 49.6844C46.9158 49.5584 48.091 48.3676 48.1987 46.915C48.2256 46.5539 48.1887 46.1966 48.0889 45.852C47.9363 45.3253 47.9363 44.7684 48.0889 44.2413C48.1887 43.8971 48.2256 43.54 48.1987 43.179Z" fill="#DCE1EA"/>
<path d="M17 35.0686H57V37.4124H17V35.0686Z" fill="#D52D78"/>
<path d="M37 35.0686H57V37.4124H37V35.0686Z" fill="#BC1F65"/>
</svg>
