<svg width="74" height="74" viewBox="0 0 74 74" fill="none" xmlns="http://www.w3.org/2000/svg">
<rect width="74" height="74" rx="37" fill="white"/>
<g clip-path="url(#clip0_450_6666)">
<path d="M55.9151 43.1655V43.12L21.6875 33.423V20.5156L55.9151 30.353V43.1655Z" fill="#1AFF84"/>
<path d="M37 37.761L55.9151 43.1199V30.3529L37 24.9165V37.761Z" fill="#14DB72"/>
<path d="M50.6157 43.1654L19.3438 36.9667V24.9781L50.6157 30.3529V43.1654Z" fill="#FFEF00"/>
<path d="M37 40.4666L50.6157 43.1655V30.353L37 28.0129V40.4666Z" fill="#FFC600"/>
<path d="M57 53.478H17V30.353H57V53.478Z" fill="#1AFF84"/>
<path d="M37 30.353H57V53.478H37V30.353Z" fill="#14DB72"/>
<path d="M37 47.7749C33.7691 47.7749 31.1406 45.1464 31.1406 41.9155C31.1406 38.6846 33.7691 36.0562 37 36.0562C40.2309 36.0562 42.8594 38.6846 42.8594 41.9155C42.8594 45.1464 40.2309 47.7749 37 47.7749Z" fill="#14DB72"/>
<path d="M24.7176 30.353H17V38.0706L24.7176 30.353Z" fill="#14DB72"/>
<path d="M17 45.7604V53.478H24.7176L17 45.7604Z" fill="#14DB72"/>
<path d="M49.2825 30.353H57.0001V38.0706L49.2825 30.353Z" fill="#12CA6A"/>
<path d="M57.0001 45.7604V53.478H49.2825L57.0001 45.7604Z" fill="#12CA6A"/>
<path d="M42.8594 41.9155C42.8594 38.6846 40.2309 36.0562 37 36.0562V47.7749C40.2309 47.7749 42.8594 45.1464 42.8594 41.9155Z" fill="#12CA6A"/>
</g>
<defs>
<clipPath id="clip0_450_6666">
<rect width="40" height="40" fill="white" transform="translate(17 17)"/>
</clipPath>
</defs>
</svg>
