<svg width="74" height="74" viewBox="0 0 74 74" fill="none" xmlns="http://www.w3.org/2000/svg">
<rect width="74" height="74" rx="37" fill="white"/>
<path d="M18.0547 32.4559H29.3828V52.7684H18.0547V32.4559Z" fill="#00B3FF"/>
<path d="M17 31.2841H29.3828V33.6278H17V31.2841Z" fill="#5F7883"/>
<path d="M28.2109 26.8442H55.9453V52.7685H28.2109V26.8442Z" fill="#F0F7FF"/>
<path d="M42.0781 26.8442H55.9453V52.7685H42.0781V26.8442Z" fill="#D7E9FC"/>
<path d="M27.1562 25.6724H57V28.0161H27.1562V25.6724Z" fill="#5F7883"/>
<path d="M42.0781 25.6724H57V28.0161H42.0781V25.6724Z" fill="#4B5055"/>
<path d="M23.1328 36.3622H25.4766V38.7059H23.1328V36.3622Z" fill="#F0F7FF"/>
<path d="M23.1328 41.4403H25.4766V43.7841H23.1328V41.4403Z" fill="#F0F7FF"/>
<path d="M23.1328 46.5184H25.4766V48.8622H23.1328V46.5184Z" fill="#F0F7FF"/>
<path d="M43.4453 41.4403H45.7891V43.7841H43.4453V41.4403Z" fill="#3A80E8"/>
<path d="M48.5234 41.4403H50.8672V43.7841H48.5234V41.4403Z" fill="#3A80E8"/>
<path d="M38.3672 41.4403H40.7109V43.7841H38.3672V41.4403Z" fill="#00B3FF"/>
<path d="M33.2891 41.4403H35.6328V43.7841H33.2891V41.4403Z" fill="#00B3FF"/>
<path d="M48.5234 36.3622H50.8672V38.7059H48.5234V36.3622Z" fill="#3A80E8"/>
<path d="M43.4453 36.3622H45.7891V38.7059H43.4453V36.3622Z" fill="#3A80E8"/>
<path d="M34.7578 20.0598V33.6278H49.3984V20.0598H34.7578Z" fill="#FF5F7B"/>
<path d="M42.0781 20.0598H49.3984V33.6278H42.0781V20.0598Z" fill="#EA344A"/>
<path d="M45.5211 25.6723V28.0161H43.25V30.2872H40.9062V28.0161H38.6351V25.6723H40.9062V23.4012H43.25V25.6723H45.5211Z" fill="#F0F7FF"/>
<path d="M45.5211 25.6723V28.0161H43.25V30.2872H42.0781V23.4012H43.25V25.6723H45.5211Z" fill="#D7E9FC"/>
<path d="M38.3672 36.3622H40.7109V38.7059H38.3672V36.3622Z" fill="#00B3FF"/>
<path d="M33.2891 36.3622H35.6328V38.7059H33.2891V36.3622Z" fill="#00B3FF"/>
<path d="M37.0977 46.5184H47.0586V52.7684H37.0977V46.5184Z" fill="#5FD6FF"/>
<path d="M42.0781 46.5184H47.0586V52.7684H42.0781V46.5184Z" fill="#00B3FF"/>
<path d="M17 51.5966H57V53.9403H17V51.5966Z" fill="#BDE760"/>
<path d="M37 51.5966H57V53.9403H37V51.5966Z" fill="#00D880"/>
</svg>
