<svg width="74" height="74" viewBox="0 0 74 74" fill="none" xmlns="http://www.w3.org/2000/svg">
<rect width="74" height="74" rx="37" fill="white"/>
<g clip-path="url(#clip0_450_6257)">
<path d="M26.375 17V21.6875L47.625 57H57V17H26.375Z" fill="#0042A2"/>
<path d="M41.6875 17V29.8906L47.6262 57H57V17H41.6875Z" fill="#002859"/>
<path d="M39.4219 21.6875H17V57H47.625V29.8906L39.4219 21.6875Z" fill="#EDF3F6"/>
<path d="M39.4219 21.6875H32.3125V57H47.625V29.8906L39.4219 21.6875Z" fill="#DDEBF0"/>
<path d="M39.4219 21.6875V29.8906H47.625L39.4219 21.6875Z" fill="#A7D2D7"/>
<path d="M21.6875 26.375H29.8906V28.7188H21.6875V26.375Z" fill="#0042A2"/>
<path d="M21.6875 31.0625H32.3125V33.4062H21.6875V31.0625Z" fill="#C5E1E6"/>
<path d="M35.9062 40.5938H42.9375V42.9375H35.9062V40.5938Z" fill="#A7D2D7"/>
<path d="M35.9062 45.2812H42.9375V47.625H35.9062V45.2812Z" fill="#A7D2D7"/>
<path d="M35.9062 49.9688H42.9375V52.3125H35.9062V49.9688Z" fill="#A7D2D7"/>
<path d="M26.4531 40.6719C23.2222 40.6719 20.5938 43.3004 20.5938 46.5312C20.5938 49.7621 23.2222 52.3906 26.4531 52.3906C29.684 52.3906 32.3125 49.7621 32.3125 46.5312C32.3125 43.3004 29.684 40.6719 26.4531 40.6719Z" fill="#76E2F8"/>
</g>
<defs>
<clipPath id="clip0_450_6257">
<rect width="40" height="40" fill="white" transform="translate(17 17)"/>
</clipPath>
</defs>
</svg>
