<svg width="74" height="74" viewBox="0 0 74 74" fill="none" xmlns="http://www.w3.org/2000/svg">
<rect width="74" height="74" rx="37" fill="white"/>
<g clip-path="url(#clip0_450_6609)">
<path d="M57 28.875V57H21.6875C19.1094 57 17 54.8906 17 52.3125C17 51.0234 17.5154 47.5078 18.3828 46.664L24.0312 28.875H57Z" fill="#FAECD8"/>
<path d="M39.2656 28.875H57V57H39.2656V28.875Z" fill="#F4D7AF"/>
<path d="M52.1562 43.6171L49.8125 42.7266L52.1562 46.9454V52.3125H44.4454L40.4375 49.9688L41.1171 52.3125H28.0391L28.7188 49.9688C28.5781 49.9688 24.9453 52.2655 24.7579 52.2655C23.0236 52.0546 21.6875 50.5782 21.6875 48.7969V33.5625H22.3671L26.375 35.9062L25.6954 33.5625H38.7734L39.2656 33.8906L42.4065 35.9062L42.1016 33.5625H52.1562V43.6171Z" fill="#90E36A"/>
<path d="M52.1562 43.6171L49.8125 42.7266L52.1562 46.9454V52.3125H44.4454L40.4375 49.9688L41.1171 52.3125H39.2656V33.8906L42.4062 35.9062L42.1016 33.5625H52.1562V43.6171Z" fill="#70DA40"/>
<path d="M52.1562 43.6171V46.9454L45.1249 39.9141L38.5859 46.4531L44.4453 52.3125H41.1171L34.5781 45.7735L28.0391 52.3125H25.2031C25.0624 52.3125 24.8985 52.289 24.7578 52.2655L32.9139 44.1094L22.3671 33.5625H25.6953L36.9218 44.789L43.4608 38.25L38.7733 33.5625H42.1016L52.1562 43.6171Z" fill="#FFD400"/>
<path d="M39.2656 47.1328L44.4454 52.3126H41.1171L39.2656 50.4611V47.1328Z" fill="#FDBF00"/>
<path d="M52.1562 43.6171V46.9454L45.125 39.9141L39.2656 45.7735V42.4453L43.4609 38.25L39.2656 34.0547V33.5625H42.1016L52.1562 43.6171Z" fill="#FDBF00"/>
<path d="M24.0312 24.1875V47.625H21.6875C20.3984 47.625 19.2266 48.1404 18.3828 49.0078C17.5154 49.8516 17 51.0234 17 52.3125V30.0469C17 26.8126 19.6251 24.1875 22.8594 24.1875H24.0312Z" fill="#FFBD86"/>
<path d="M39.2656 17C34.7423 17 31.0625 20.8361 31.0625 25.3594C31.0625 27.1407 31.6249 28.8515 32.7031 30.2812L39.2656 39.0233L45.8281 30.2812C46.9063 28.828 47.4688 27.0937 47.4688 25.3594C47.4688 20.8361 43.7889 17 39.2656 17ZM39.2656 28.875C37.3201 28.875 35.75 27.3049 35.75 25.3594C35.75 23.4139 37.3201 21.8438 39.2656 21.8438C41.2111 21.8438 42.7812 23.4139 42.7812 25.3594C42.7812 27.3049 41.2111 28.875 39.2656 28.875Z" fill="#FF7816"/>
<path d="M47.4688 25.3594C47.4688 27.0937 46.9063 28.828 45.8281 30.2812L39.2656 39.0233V28.875C41.2111 28.875 42.7812 27.3049 42.7812 25.3594C42.7812 23.4139 41.2111 21.8438 39.2656 21.8438V17C43.7889 17 47.4688 20.8361 47.4688 25.3594Z" fill="#FF4B00"/>
</g>
<defs>
<clipPath id="clip0_450_6609">
<rect width="40" height="40" fill="white" transform="translate(17 17)"/>
</clipPath>
</defs>
</svg>
