<svg width="74" height="74" viewBox="0 0 74 74" fill="none" xmlns="http://www.w3.org/2000/svg">
<rect width="74" height="74" rx="37" fill="white"/>
<g clip-path="url(#clip0_450_7551)">
<path d="M51.1422 22.8578C47.3646 19.0804 42.3422 17 37 17L31.6653 38.5129L37 57C42.3422 57 47.3646 54.9196 51.1422 51.1422C54.9196 47.3646 57 42.3422 57 37C57 31.6578 54.9196 26.6354 51.1422 22.8578Z" fill="#6A4DFF"/>
<path d="M22.8578 22.8578C19.0804 26.6354 17 31.6578 17 37C17 42.3422 19.0804 47.3646 22.8578 51.1422C26.6354 54.9196 31.6578 57 37 57V17C31.6578 17 26.6354 19.0804 22.8578 22.8578Z" fill="#9966FF"/>
<path d="M54.6562 37C54.6562 38.1764 54.5396 39.3259 54.319 40.4385L45.1589 33.7558L45.1594 33.7543L48.4815 23.5979C52.2588 26.8387 54.6562 31.6444 54.6562 37Z" fill="#9966FF"/>
<path d="M38.9977 29.2759L45.7536 24.3989L43.1671 32.3064L38.9977 29.2759Z" fill="#9966FF"/>
<path d="M30.8698 32.2763L28.3203 24.3774L35.0102 29.2693L30.8698 32.2763Z" fill="#CC99FF"/>
<path d="M29.631 36.0691L31.2085 40.9567L22.8984 40.9404L29.631 36.0691Z" fill="#CC99FF"/>
<path d="M44.3929 36.0981L51.1061 40.9958L42.7961 40.9795L44.3929 36.0981Z" fill="#9966FF"/>
<path d="M39.08 44.8197C38.3464 44.6492 37.6443 44.842 37 45.216L36.1123 47.1579L37 51.2151L39.08 44.8197Z" fill="#9966FF"/>
<path d="M34.9127 44.7849L37 51.2151V45.216C36.4079 44.8777 35.5912 44.6771 34.9127 44.7849Z" fill="#CC99FF"/>
<path d="M37 42.6639C37.9629 42.3499 38.8356 42.3239 39.8062 42.586L41.1332 38.5242L38.665 39.0259L38.1982 36.7292L41.9711 35.9624L42.4013 34.6473L37 30.7212L36.1123 38.0224L37 42.6639Z" fill="#9966FF"/>
<path d="M31.6271 34.6231L32.0607 35.9669L35.8114 36.7292L35.3445 39.0259L32.8868 38.5263L34.1839 42.5404C35.0969 42.3282 36.0984 42.3694 37 42.6638V30.7212L31.6271 34.6231Z" fill="#CC99FF"/>
<path d="M37 19.3438L35.9563 22.8594L37 27.8241L45.6268 21.5998C43.0741 20.1641 40.1313 19.3438 37 19.3438Z" fill="#9966FF"/>
<path d="M28.4408 21.562L37 27.8241V19.3438C33.8963 19.3438 30.9777 20.1498 28.4408 21.562Z" fill="#CC99FF"/>
<path d="M25.5873 23.5398L28.8741 33.7239L19.6703 40.3832C19.4569 39.2878 19.3438 38.1569 19.3438 37C19.3438 31.6121 21.7704 26.781 25.5873 23.5398Z" fill="#CC99FF"/>
<path d="M20.4987 43.2793L31.9669 43.3019L35.6369 54.604C28.7045 54.0723 22.8811 49.5188 20.4987 43.2793Z" fill="#CC99FF"/>
<path d="M38.3634 54.6041L42.0316 43.3218L53.4767 43.3442C51.0789 49.5504 45.2717 54.074 38.3634 54.6041Z" fill="#9966FF"/>
<path d="M38.7753 21.6111H37L36.1123 22.8695L37 23.9548H38.7753V21.6111Z" fill="#FFCC99"/>
<path d="M35.2247 21.6111H37V23.9548H35.2247V21.6111Z" fill="#FFE5B3"/>
<path d="M22.0662 32.8875L23.3976 29.5961L25.5703 30.475L24.2388 33.7664L22.0662 32.8875Z" fill="#FFE5B3"/>
<path d="M26.6686 47.8198L28.0257 45.9096L30.9194 47.9654L29.5623 49.8756L26.6686 47.8198Z" fill="#FFE5B3"/>
<path d="M43.0925 47.9565L45.9862 45.9008L47.3433 47.811L44.4496 49.8668L43.0925 47.9565Z" fill="#FFCC99"/>
<path d="M48.4294 30.4524L50.6021 29.5735L51.9336 32.8648L49.7609 33.7437L48.4294 30.4524Z" fill="#FFCC99"/>
</g>
<defs>
<clipPath id="clip0_450_7551">
<rect width="40" height="40" fill="white" transform="translate(17 17)"/>
</clipPath>
</defs>
</svg>
