<svg width="74" height="74" viewBox="0 0 74 74" fill="none" xmlns="http://www.w3.org/2000/svg">
<rect width="74" height="74" rx="37" fill="white"/>
<g clip-path="url(#clip0_450_7179)">
<path d="M16.9908 52.301V54.655H37L38.1771 53.478L37 52.301H16.9908Z" fill="#293E65"/>
<path d="M37 52.301H57.0092V54.655H37V52.301Z" fill="#0F2349"/>
<path d="M23.7603 24.2827L22.2482 24.7098L22.1429 26.012C23.4089 27.5073 24.3478 29.2407 24.9081 31.1148L26.196 31.9533L27.3497 31.1146C26.707 28.5816 25.4808 26.2479 23.7603 24.2827Z" fill="#DEE9FC"/>
<path d="M20.5219 26.4068C18.5749 26.4068 16.9908 24.8227 16.9908 22.8758C16.9908 20.9288 18.5749 19.3447 20.5219 19.3447C22.4689 19.3447 24.0529 20.9288 24.0529 22.8758C24.0529 24.8227 22.4689 26.4068 20.5219 26.4068Z" fill="#FF7430"/>
<path d="M19.6029 31.1147L16.9908 41.5629V49.9469H37L38.1771 41.7078L37 31.1147H19.6029Z" fill="#9FE200"/>
<path d="M52.3011 40.5308H44.7895L40.0814 31.1147H37V49.9469H57.0092V45.2389C57.0092 42.6429 54.8972 40.5308 52.3011 40.5308Z" fill="#09C94A"/>
<path d="M25.2299 54.6551C27.8301 54.6551 29.9379 52.5472 29.9379 49.9471C29.9379 47.3469 27.8301 45.239 25.2299 45.239C22.6297 45.239 20.5219 47.3469 20.5219 49.9471C20.5219 52.5472 22.6297 54.6551 25.2299 54.6551Z" fill="#4B5586"/>
<path d="M25.2299 52.3011C26.53 52.3011 27.5839 51.2471 27.5839 49.947C27.5839 48.6469 26.53 47.593 25.2299 47.593C23.9298 47.593 22.8759 48.6469 22.8759 49.947C22.8759 51.2471 23.9298 52.3011 25.2299 52.3011Z" fill="#DEE9FC"/>
<path d="M48.7702 54.6551C51.3704 54.6551 53.4782 52.5472 53.4782 49.9471C53.4782 47.3469 51.3704 45.239 48.7702 45.239C46.17 45.239 44.0621 47.3469 44.0621 49.9471C44.0621 52.5472 46.17 54.6551 48.7702 54.6551Z" fill="#293E65"/>
<path d="M48.7702 52.3011C50.0703 52.3011 51.1242 51.2471 51.1242 49.947C51.1242 48.6469 50.0703 47.593 48.7702 47.593C47.4701 47.593 46.4161 48.6469 46.4161 49.947C46.4161 51.2471 47.4701 52.3011 48.7702 52.3011Z" fill="#C5D7FB"/>
<path d="M24.2834 40.5308H19.6754L20.9919 35.2646L24.2834 40.5308Z" fill="#DEE9FC"/>
<path d="M27.0593 40.5308L22.6455 33.4688H33.4691V40.5308H27.0593Z" fill="#DEE9FC"/>
<path d="M35.8231 33.4688V40.5308H37.0001L38.1771 38.1768L37.0001 33.4688H35.8231Z" fill="#DEE9FC"/>
<path d="M38.6266 33.4688H37V40.5308H42.1576L38.6266 33.4688Z" fill="#C5D7FB"/>
</g>
<defs>
<clipPath id="clip0_450_7179">
<rect width="40.0184" height="40" fill="white" transform="translate(16.9908 17)"/>
</clipPath>
</defs>
</svg>
