<svg width="74" height="74" viewBox="0 0 74 74" fill="none" xmlns="http://www.w3.org/2000/svg">
<rect width="74" height="74" rx="37" fill="white"/>
<g clip-path="url(#clip0_450_7471)">
<path d="M37 17L35.8281 18.1719L37 19.3438H42.8594V22.8594H45.2031V17H37Z" fill="#636363"/>
<path d="M31.1406 22.8594H28.7969V17H37V19.3438H31.1406V22.8594Z" fill="#A1A1A1"/>
<path d="M26.4531 19.3438H24.1094V22.8594H26.4531V19.3438Z" fill="#A1A1A1"/>
<path d="M49.8906 19.3438H47.5469V22.8594H49.8906V19.3438Z" fill="#828282"/>
<path d="M51.1406 21.6875H37L32.3125 39.3438L37 57H51.1406C54.3715 57 57 54.3715 57 51.1406V27.5469C57 24.316 54.3715 21.6875 51.1406 21.6875Z" fill="#D2D2D2"/>
<path d="M22.8594 21.6875C19.6285 21.6875 17 24.316 17 27.5469V51.1406C17 54.3715 19.6285 57 22.8594 57H37V21.6875H22.8594Z" fill="#E4E4E4"/>
<path d="M41.2188 35.125V28.7188H37L33.875 39.3438L37 49.9688H41.2188V43.5625H47.625V35.125H41.2188Z" fill="#FF3CAD"/>
<path d="M32.7812 28.7188V35.125H26.375V43.5625H32.7812V49.9688H37V28.7188H32.7812Z" fill="#FE6192"/>
</g>
<defs>
<clipPath id="clip0_450_7471">
<rect width="40" height="40" fill="white" transform="translate(17 17)"/>
</clipPath>
</defs>
</svg>
