<svg width="74" height="74" viewBox="0 0 74 74" fill="none" xmlns="http://www.w3.org/2000/svg">
<rect width="74" height="74" rx="37" fill="white"/>
<path d="M32.4183 51.2038C28.4552 51.2038 24.0229 48.3764 24.0229 44.5924V41.4412H26.3667V44.5924C26.3667 47.0091 29.8048 48.8601 32.4183 48.8601C34.509 48.8601 35.7417 47.8465 35.7417 45.7025H38.0855C38.0855 49.1722 35.7781 51.2038 32.4183 51.2038Z" fill="#4B2746"/>
<path d="M49.8039 22.363V51.6372L21.3492 41.2896L21.3234 38.2498L21.2992 35.3193L49.8039 22.363Z" fill="#FFF5F5"/>
<path d="M49.804 38.2498V51.6372L21.3493 41.2896L21.3235 38.2498H49.804Z" fill="#EFE2DD"/>
<path d="M22.9375 34.6027V41.8622L17 44.8286V31.6614L22.9375 34.6027Z" fill="#FF641A"/>
<path d="M22.9375 38.2498V41.8623L17 44.8287V38.2498H22.9375Z" fill="#F03800"/>
<path d="M52.3124 37.0732H56.9999V39.417H52.3124V37.0732Z" fill="#FED843"/>
<path d="M52.3124 38.2498H56.9999V39.4169H52.3124V38.2498Z" fill="#FABE2C"/>
<path d="M51.3365 31.2158L55.337 27.2154L56.994 28.8724L52.9936 32.8729L51.3365 31.2158Z" fill="#FED843"/>
<path d="M51.335 45.2769L52.992 43.6198L56.9924 47.6202L55.3354 49.2773L51.335 45.2769Z" fill="#FABE2C"/>
</svg>
