<svg width="20" height="20" viewBox="0 0 20 20" fill="none" xmlns="http://www.w3.org/2000/svg">
<path d="M11.25 1.66699C11.4268 1.66699 11.5967 1.73726 11.7217 1.8623L16.4707 6.6123C16.5957 6.73732 16.666 6.90721 16.666 7.08398V16.834C16.6658 17.6622 15.9943 18.334 15.166 18.334H4.83301C4.00489 18.3338 3.33327 17.6621 3.33301 16.834V3.16699C3.33301 2.33867 4.00473 1.66717 4.83301 1.66699H11.25ZM4.83301 3C4.74111 3.00018 4.66699 3.07505 4.66699 3.16699V16.834C4.66726 16.9257 4.74127 16.9998 4.83301 17H15.166C15.2579 17 15.3327 16.9258 15.333 16.834V7.75H12.083C11.2547 7.74982 10.583 7.07832 10.583 6.25V3H4.83301ZM12.499 13.333C12.8672 13.333 13.166 13.6318 13.166 14C13.166 14.3682 12.8672 14.667 12.499 14.667H6.66602C6.29783 14.667 5.99902 14.3682 5.99902 14C5.99902 13.6318 6.29783 13.333 6.66602 13.333H12.499ZM9.99902 10.5C10.3672 10.5 10.666 10.7988 10.666 11.167C10.6659 11.5351 10.3671 11.833 9.99902 11.833H6.66602C6.29791 11.833 5.99916 11.5351 5.99902 11.167C5.99902 10.7988 6.29783 10.5 6.66602 10.5H9.99902ZM11.917 6.25C11.917 6.34194 11.9911 6.41682 12.083 6.41699H14.3896L11.917 3.94336V6.25Z" fill="#33363D"/>
</svg>
