<svg width="20" height="20" viewBox="0 0 20 20" fill="none" xmlns="http://www.w3.org/2000/svg">
<rect width="16.6667" height="16.6667" rx="8.33333" transform="matrix(1 0 0 -1 1.66663 18.3334)" fill="#D63D4A"/>
<path d="M9.91606 7.86755C10.4683 7.86755 10.9161 7.41984 10.9161 6.86755C10.9161 6.31527 10.4683 5.86755 9.91606 5.86755C9.36377 5.86755 8.91606 6.31527 8.91606 6.86755C8.91606 7.41984 9.36377 7.86755 9.91606 7.86755Z" fill="white"/>
<path d="M8.69939 8.69267C8.58893 8.69267 8.49939 8.78221 8.49939 8.89267V9.49267C8.49939 9.60312 8.58893 9.69267 8.69939 9.69267H9.21736C9.32782 9.69267 9.41736 9.78221 9.41736 9.89267V12.9948H8.53337C8.42292 12.9948 8.33337 13.0844 8.33337 13.1948V13.7948C8.33337 13.9053 8.42292 13.9948 8.53337 13.9948H11.4667C11.5772 13.9948 11.6667 13.9053 11.6667 13.7948V13.1948C11.6667 13.0844 11.5772 12.9948 11.4667 12.9948H10.9174V8.89267C10.9174 8.78221 10.8278 8.69267 10.7174 8.69267H8.69939Z" fill="white"/>
</svg>
