<svg width="32" height="32" viewBox="0 0 32 32" fill="none" xmlns="http://www.w3.org/2000/svg">
<path d="M27.999 22.9336C28.588 22.9336 29.0653 23.411 29.0654 24C29.0654 24.5891 28.5881 25.0673 27.999 25.0674H3.99902C3.40992 25.0674 2.93262 24.5891 2.93262 24C2.93276 23.411 3.41001 22.9336 3.99902 22.9336H27.999ZM27.999 14.9336C28.588 14.9336 29.0653 15.411 29.0654 16C29.0654 16.5891 28.5881 17.0673 27.999 17.0674H3.99902C3.40992 17.0674 2.93262 16.5891 2.93262 16C2.93276 15.411 3.41001 14.9336 3.99902 14.9336H27.999ZM27.999 6.93359C28.588 6.93363 29.0653 7.41104 29.0654 8C29.0654 8.58908 28.5881 9.06735 27.999 9.06738H3.99902C3.40992 9.06738 2.93262 8.5891 2.93262 8C2.93276 7.41102 3.41001 6.93359 3.99902 6.93359H27.999Z" fill="#1E2124"/>
</svg>
