<svg width="32" height="32" viewBox="0 0 32 32" fill="none" xmlns="http://www.w3.org/2000/svg">
<path d="M24.8408 5.646C25.2573 5.22992 25.9322 5.22996 26.3487 5.646C26.7652 6.06255 26.7652 6.73822 26.3487 7.15479L17.5059 15.9976L26.3545 24.8472C26.771 25.2637 26.7709 25.9394 26.3545 26.356C25.9379 26.7725 25.2623 26.7725 24.8457 26.356L15.9971 17.5064L7.14944 26.356C6.7329 26.7725 6.05723 26.7725 5.64065 26.356C5.22411 25.9394 5.22412 25.2637 5.64065 24.8472L14.4883 15.9976L5.64554 7.15479C5.22915 6.7382 5.22902 6.06249 5.64554 5.646C6.06205 5.22958 6.73778 5.22965 7.15433 5.646L15.9971 14.4888L24.8408 5.646Z" fill="#131416"/>
</svg>
