<svg width="189" height="133" viewBox="0 0 189 133" fill="none" xmlns="http://www.w3.org/2000/svg">
<g clip-path="url(#clip0_450_3071)">
<path fill-rule="evenodd" clip-rule="evenodd" d="M98.8699 6.45009C98.8699 6.45009 117.51 -3.72991 131.48 4.55009C145.74 13.0101 154.11 21.0001 149.52 27.3801L147.84 29.5801C147.84 29.5801 173.4 49.7701 172.3 90.6201C172.3 90.6201 179.84 86.3901 182.12 87.2801C182.12 87.2801 191.72 99.8501 184 114.34C184 114.34 186.53 115.96 186.24 116.93C186.24 116.93 178.83 131.9 156.14 127.25C155.63 127.14 156.77 126.21 156.77 126.21C156.77 126.21 137.55 131.28 133.99 128.55C130.43 125.82 131.25 125.55 131.25 125.55L126.86 126.52L125.16 124.9L121.84 128.36L117.39 128.01L111.62 130.68L103.93 128.09L92.6599 128.22C92.6599 128.22 79.9699 126.21 77.8999 107.67C76.9599 99.2901 78.1399 78.4501 98.9699 53.6001C98.9699 53.6001 80.5399 56.8501 84.5499 28.0701C86.5299 13.8601 98.8599 6.44009 98.8599 6.44009L98.8699 6.45009Z" fill="white"/>
<path d="M84.54 30.94C84.54 30.94 87.83 28.47 93.19 30.75C96.65 32.22 101.63 40.68 101.45 48.69C101.3 55.17 96.47 53.74 96.47 53.74C96.47 53.74 88.35 57.17 83.55 37.86C83.55 37.86 83.34 36.66 84.54 30.94Z" fill="#F9C270"/>
<path d="M150.11 24.4C149.52 21.14 145.6 11.16 132.43 4.95002L128.04 3.40002C128.04 3.40002 110.6 0.0600207 108.35 2.51002L107.41 2.70002C107.41 2.70002 104.49 26.96 128.46 18.56C129.63 21.9 132.31 24.23 134.65 27.03C140.08 33.56 145.76 30.78 145.76 30.78C145.76 30.78 150.69 27.66 150.1 24.4H150.11Z" fill="#F9C270"/>
<path d="M171.37 90.6601C171.37 90.6601 177.49 86.3801 180.59 87.4601C185.06 89.0101 190.19 103.46 183.41 113.82L186.56 116.97C186.56 116.97 176.07 129.44 163.27 128.12C150.47 126.8 155.74 126.43 155.74 126.43C155.74 126.43 163.84 122.66 166.28 112.12C166.28 112.12 168.68 110.99 171.36 90.6601H171.37Z" fill="#F9C270"/>
<path d="M105.15 129.46C105.05 129.46 104.95 129.44 104.86 129.41C100.04 127.63 95.34 121.69 95.14 121.44C94.85 121.07 94.91 120.54 95.28 120.25C95.65 119.96 96.18 120.03 96.47 120.39C96.51 120.45 101.08 126.21 105.45 127.82C105.89 127.98 106.11 128.47 105.95 128.91C105.82 129.25 105.5 129.46 105.15 129.46Z" fill="#003595" stroke="#003595" stroke-linecap="round" stroke-linejoin="round"/>
<path d="M112.37 131.57C112.1 131.57 111.82 131.55 111.55 131.51C108.08 131.02 105.72 129.88 104.97 129.47C84.7599 131.23 81.5099 118.55 81.4799 118.42C81.3699 117.96 81.6499 117.51 82.1099 117.4C82.5599 117.29 83.0199 117.57 83.1299 118.03C83.2499 118.51 86.1899 129.51 105.08 127.76L105.36 127.73L105.6 127.88C105.6 127.88 107.99 129.29 111.79 129.83C113.3 130.04 114.8 129.42 115.72 128.19L116.94 126.57L119.74 127.18C121.42 127.54 123.11 126.69 123.76 125.14C125.17 121.79 126.38 113.68 118.7 96.9901C118.5 96.5701 118.7 96.0601 119.11 95.8701C119.53 95.6701 120.04 95.8701 120.23 96.2901C127.79 112.7 127.17 121.4 125.31 125.81C124.34 128.11 121.84 129.39 119.37 128.85L117.63 128.47L117.07 129.22C115.95 130.71 114.2 131.57 112.37 131.57Z" fill="#003595" stroke="#003595" stroke-linecap="round" stroke-linejoin="round"/>
<path d="M141.46 130.19C138.9 130.19 136.72 129.99 135.27 129.81C133.39 129.58 131.81 128.24 131.27 126.44L129.03 127.17C127.96 127.52 126.79 127.33 125.89 126.65C125.49 126.35 125.17 125.98 124.94 125.56C124.86 125.57 124.77 125.57 124.68 125.56C124.22 125.48 123.9 125.05 123.98 124.59C124.3 122.63 124.44 121.75 125.38 121.83C126.26 121.92 126.24 122.8 126.2 123.83C126.18 124.42 126.44 124.95 126.91 125.31C127.37 125.66 127.96 125.75 128.51 125.57L131.01 124.75C131.39 124.63 131.81 124.66 132.16 124.86C132.51 125.06 132.76 125.39 132.86 125.78C133.15 127.03 134.21 127.98 135.49 128.14C143.56 129.14 162.69 129.59 165.89 112.3C165.97 111.84 166.42 111.53 166.88 111.62C167.34 111.71 167.65 112.15 167.56 112.61C164.78 127.65 150.68 130.2 141.48 130.2L141.46 130.19Z" fill="#003595" stroke="#003595" stroke-linecap="round" stroke-linejoin="round"/>
<path d="M163.21 129.03C158.82 129.03 155.96 128.08 155.89 128.05C155.45 127.9 155.21 127.42 155.37 126.97C155.52 126.53 156.01 126.29 156.45 126.44C156.6 126.49 171.2 131.29 184.76 118.08C185.13 117.72 185.34 117.21 185.32 116.69C185.3 116.22 185.11 115.81 184.78 115.53C184.53 115.32 184.26 115.2 183.97 115.18C183.38 115.13 183.14 114.79 183.04 114.59C182.75 113.99 183.1 113.45 183.64 112.64C185.24 110.21 189.5 103.76 183.15 90.3302C182.32 88.5802 180.31 87.7102 178.46 88.3102C177.08 88.7502 175.66 89.6102 173.29 91.0402L172.79 91.3402C172.39 91.5802 171.87 91.4502 171.63 91.0502C171.39 90.6502 171.52 90.1302 171.92 89.8902L172.42 89.5902C174.89 88.1002 176.38 87.2002 177.95 86.7002C180.6 85.8402 183.51 87.0902 184.7 89.6102C191.45 103.9 186.82 110.93 185.07 113.57C185.04 113.61 185.02 113.65 184.99 113.69C185.31 113.82 185.61 114 185.89 114.23C186.59 114.83 187 115.68 187.03 116.63C187.06 117.63 186.67 118.6 185.96 119.29C177.74 127.3 169.12 129.02 163.23 129.02L163.21 129.03Z" fill="#003595" stroke="#003595" stroke-linecap="round" stroke-linejoin="round"/>
<path d="M171.4 97.4899C171.4 97.4899 171.33 97.4899 171.3 97.4899C170.84 97.4299 170.5 97.0099 170.56 96.5499C173.43 72.7699 166.96 55.9999 161.02 46.1199C154.6 35.4399 147.46 30.3299 147.39 30.2799C147.01 30.0099 146.92 29.4799 147.19 29.0999C147.46 28.7199 147.99 28.6299 148.37 28.8999C148.67 29.1099 155.88 34.2699 162.48 45.2499C168.55 55.3599 175.18 72.4999 172.25 96.7599C172.2 97.1899 171.83 97.5099 171.41 97.5099L171.4 97.4899Z" fill="#003595" stroke="#003595" stroke-linecap="round" stroke-linejoin="round"/>
<path d="M124.48 111.25C124.48 111.25 124.4 111.25 124.36 111.25C123.9 111.18 123.58 110.75 123.64 110.29C124.32 105.61 130.55 96.5501 130.82 96.1701C131.09 95.7901 131.62 95.6901 132 95.9601C132.39 96.2301 132.48 96.7501 132.22 97.1401C132.16 97.2301 125.95 106.25 125.33 110.54C125.27 110.96 124.91 111.26 124.49 111.26L124.48 111.25Z" fill="#003595" stroke="#003595" stroke-linecap="round" stroke-linejoin="round"/>
<path d="M95.89 54.56C94.18 54.56 92.59 54.12 91.12 53.25C85.1 49.68 83.4 40.06 83.33 39.65C83.3 39.5 79.79 21.6 94.09 9.03004C111.67 -6.40996 131.67 3.41004 135.5 5.54004C141.54 8.89004 146.33 13.29 149 17.91C151.09 21.54 151.54 25.32 150.2 28.02C149 30.43 146.55 31.89 142.91 32.35C133.4 33.56 123.14 9.98004 123.12 9.90004C123.01 9.44004 123.3 8.99004 123.75 8.88004C124.21 8.78004 124.66 9.06004 124.77 9.52004C124.83 9.79004 134.75 31.68 142.69 30.67C145.73 30.28 147.75 29.13 148.67 27.27C149.95 24.68 148.91 21.18 147.52 18.76C145 14.4 140.44 10.23 134.67 7.03004C131.01 5.00004 111.93 -4.37996 95.2 10.32C81.65 22.22 84.95 39.18 84.98 39.35C85 39.47 86.63 48.64 91.97 51.81C94.06 53.05 96.5 53.21 99.21 52.28C104.93 50.32 95.12 32.16 95.08 32.05C94.93 31.61 95.17 31.13 95.61 30.98C96.05 30.83 96.53 31.07 96.68 31.51C96.85 32.02 107.05 51.38 99.75 53.88C98.4 54.34 97.1 54.57 95.86 54.57L95.89 54.56Z" fill="#003595" stroke="#003595" stroke-linecap="round" stroke-linejoin="round"/>
<path d="M83.1299 121.76C82.8599 121.76 82.5899 121.63 82.4299 121.38C74.5299 109.64 74.7799 94.05 83.1699 76.29C88.4599 65.08 95.4899 56.21 97.6299 53.64C97.6299 53.29 97.8399 52.96 98.1799 52.83C98.3899 52.75 98.5099 52.69 98.5299 52.68L102.4 50.75L99.5399 54C99.4599 54.1 90.8599 63.94 84.6799 77.04C79.0299 89.02 74.2999 106.27 83.8299 120.43C84.0899 120.82 83.9899 121.34 83.5999 121.6C83.4499 121.7 83.2899 121.75 83.1299 121.75V121.76Z" fill="#003595" stroke="#003595" stroke-linecap="round" stroke-linejoin="round"/>
<path d="M117.27 24.28C118.25 25.75 117.24 28.14 115.03 29.6C112.82 31.06 110.23 31.06 109.25 29.58C108.28 28.1 109.28 25.72 111.49 24.26C113.7 22.8 116.29 22.8 117.27 24.28Z" fill="#003595"/>
<path d="M116.55 17.1201C116.55 17.1201 116.57 17.0801 116.58 17.0601C117.09 16.1001 118.55 16.9601 118.04 17.9201C118.02 17.9601 118 18.0001 117.98 18.0401C117.47 19.0001 116.01 18.1401 116.52 17.1801C116.9 16.4501 118.43 16.2201 119.14 16.0801C120.26 15.8501 121.4 15.7901 122.54 15.9001C123.28 15.9701 123.83 17.1101 122.96 17.4801C121.09 18.2901 119.17 18.9101 117.17 19.3201C116.1 19.5401 115.66 17.9001 116.73 17.6801C118.58 17.3001 120.39 16.7501 122.12 16.0101C122.26 16.5401 122.41 17.0601 122.55 17.5901C121.73 17.5101 120.9 17.5101 120.08 17.6201C119.75 17.6701 119.41 17.7401 119.09 17.8201C119 17.8401 117.93 18.1201 117.97 18.0401C117.49 17.7501 117 17.4601 116.51 17.1801C116.53 17.1401 116.55 17.1001 116.57 17.0601C117.05 17.3501 117.54 17.6301 118.03 17.9201C118.02 17.9401 118.01 17.9601 118 17.9801C117.49 18.9401 116.03 18.0801 116.54 17.1201H116.55Z" fill="#003595"/>
<path d="M102.61 25.7101C102.61 25.7101 102.57 25.7101 102.54 25.7101C101.47 25.8901 101.83 27.5501 102.9 27.3701C102.94 27.3701 102.98 27.3601 103.03 27.3501C104.11 27.1701 103.75 25.5101 102.67 25.6901C101.86 25.8301 101.16 27.2001 100.8 27.8401C100.23 28.8401 99.8199 29.8901 99.5599 31.0101C99.3899 31.7301 100.31 32.6101 100.93 31.9101C102.28 30.3901 103.48 28.7601 104.5 26.9901C105.04 26.0501 103.63 25.1101 103.08 26.0601C102.14 27.7001 101.05 29.2401 99.7999 30.6601C100.26 30.9601 100.71 31.2601 101.17 31.5601C101.36 30.7601 101.61 29.9701 101.98 29.2201C102.13 28.9201 102.3 28.6301 102.48 28.3401C102.53 28.2601 103.13 27.3301 103.04 27.3501C102.92 26.8001 102.8 26.2501 102.68 25.6901C102.64 25.6901 102.59 25.7001 102.55 25.7101C102.67 26.2601 102.79 26.8101 102.91 27.3701C102.93 27.3701 102.95 27.3701 102.97 27.3601C104.04 27.1801 103.68 25.5201 102.61 25.7001V25.7101Z" fill="#003595"/>
<path fill-rule="evenodd" clip-rule="evenodd" d="M56.14 36.8C57.29 34.25 59.9 29.42 63.9 27.13C65.25 26.36 66.9 26.3 68.32 26.95C70.05 27.74 72.6 29.38 75.43 32.78C76.41 33.95 77.74 34.78 79.23 35.13C85.06 36.51 99.88 41.96 99.88 61.62C99.88 61.62 99.77 75.74 94.65 82.33C89.99 88.33 86.45 93.08 82.87 101.69C82.2 103.3 82 105.06 82.26 106.79C83.2 112.98 84.27 128.76 70.33 127.7C69.32 127.62 68.25 127.22 67.28 127.54C64.01 128.6 59.6 131.12 54.07 128.15C50.64 132.78 42.7 131.12 36.86 127.93C30.04 124.21 21.33 125.64 13.86 121.11C-4.79004 109.82 0.0999641 75.25 11.4 77.19C11.4 77.19 15.35 77.62 14.41 85.34C13.56 92.27 13.02 101.78 16.17 107.47C16.39 107.87 16.99 107.65 16.91 107.21C15.17 98.54 11.37 64.08 53.78 39.42C54.82 38.82 55.65 37.89 56.15 36.8H56.14Z" fill="#F9C270"/>
<path fill-rule="evenodd" clip-rule="evenodd" d="M34.3899 53.4297C34.3899 53.4297 50.1199 61.4297 45.6699 67.2897C41.1499 73.2397 28.8199 60.5097 28.8199 60.5097L34.3899 53.4197V53.4297Z" fill="#003595"/>
<path fill-rule="evenodd" clip-rule="evenodd" d="M23.75 67.2998C23.75 67.2998 36 72.5298 34.4 79.8498C32.85 86.9498 20.51 78.9198 19.85 75.8998C19.19 72.8798 23.76 67.2898 23.76 67.2898L23.75 67.2998Z" fill="#003595"/>
<path fill-rule="evenodd" clip-rule="evenodd" d="M18.09 82.6997C18.09 82.6997 29.53 87.0897 26.21 91.9997C23.29 96.3197 15.72 90.4397 15.72 90.4397L18.09 82.6997Z" fill="#003595"/>
<path fill-rule="evenodd" clip-rule="evenodd" d="M85.42 37.5698C84.52 36.9598 83.39 37.1598 82.68 38.0698C80.5 40.8698 76.81 45.0798 79.38 47.1198C84.67 51.3198 87.84 39.2198 85.89 37.8798L85.43 37.5698H85.42Z" fill="#003595"/>
<path fill-rule="evenodd" clip-rule="evenodd" d="M90.83 40.6797C90.83 40.6797 95.5 51.3197 88.55 51.3197C83.71 51.3197 88.55 40.6797 88.55 40.6797H90.83Z" fill="#003595"/>
<path fill-rule="evenodd" clip-rule="evenodd" d="M6.46997 107.97C6.46997 106.43 9.08997 102.18 14.85 105C15.01 105.08 15.14 105.21 15.21 105.37L15.66 106.35C15.87 106.82 15.51 107.2 15.02 107.41C13.7 107.96 11.48 109.23 9.33997 109.88C8.71997 110.07 7.58997 109.98 7.02997 109.61L7.38997 109.78C7.37997 109.71 7.04997 109.6 7.01997 109.54L6.95997 109.4C7.02997 109.61 6.48997 108.92 6.47997 107.95L6.46997 107.97Z" fill="#003595"/>
<path fill-rule="evenodd" clip-rule="evenodd" d="M3.80001 98.0499C4.26001 96.3199 8.08001 92.2399 12.77 96.9199C12.9 97.0499 12.98 97.2399 13 97.4299L13.13 98.6399C13.19 99.2199 12.72 99.5599 12.19 99.6599C10.75 99.9399 8.23001 100.78 5.97001 100.95C5.31001 101 4.26001 100.61 3.82001 100.05L4.11001 100.34C4.11001 100.26 3.84001 100.05 3.83001 99.9699V99.7999C3.83001 100.05 3.51001 99.1299 3.80001 98.0499Z" fill="#003595"/>
<path fill-rule="evenodd" clip-rule="evenodd" d="M4.27 87.1498C5.29 85.5798 10.3 82.6698 13.24 88.6898C13.32 88.8598 13.34 89.0598 13.3 89.2698L13.02 90.5098C12.89 91.1098 12.33 91.2998 11.78 91.2398C10.31 91.0898 7.62 91.1698 5.39 90.6698C4.74 90.5198 3.86 89.8198 3.63 89.1398L3.82 89.5098C3.86 89.4298 3.66 89.1398 3.67 89.0598L3.71 88.8898C3.63 89.1398 3.64 88.1398 4.27 87.1598V87.1498Z" fill="#003595"/>
<path fill-rule="evenodd" clip-rule="evenodd" d="M81.14 36.2999C81.14 36.2999 79.37 42.6499 75.26 41.5799C71.15 40.5199 75.41 33.7899 78.27 35.0399L81.13 36.2899L81.14 36.2999Z" fill="#003595"/>
<path d="M47.42 131.86C43.92 131.86 39.94 130.58 36.44 128.68C33.36 127 29.86 126.41 26.16 125.78C21.91 125.06 17.51 124.32 13.41 121.84C0.0300159 113.73 -1.56998 94.6299 2.41002 83.9499C4.45002 78.4799 7.78002 75.7099 11.54 76.3499C11.63 76.3499 12.88 76.5299 13.95 77.8799C15.23 79.4899 15.67 82.0399 15.25 85.4399C14.34 92.8699 14.4 98.7599 15.42 103.04C14.84 97.5499 14.8 88.8499 17.97 79.0499C23.2 62.8699 35.1 49.2899 53.34 38.6899C54.24 38.1699 54.93 37.3899 55.36 36.4499C56.59 33.7199 59.29 28.7899 63.47 26.3999C65.04 25.4999 66.98 25.4199 68.66 26.1799C70.4 26.9699 73.1 28.6699 76.07 32.2399C76.92 33.2599 78.11 33.9999 79.42 34.3099C85.82 35.8299 100.72 41.5299 100.72 61.6199C100.72 62.2099 100.54 76.1099 95.31 82.8499C90.51 89.0299 87.1 93.7099 83.65 102.02C83.05 103.48 82.85 105.08 83.09 106.67C83.84 111.56 84.41 120.48 79.91 125.34C77.64 127.79 74.4 128.86 70.26 128.55C69.91 128.52 69.57 128.46 69.23 128.41C68.6 128.3 68 128.2 67.53 128.35C67.05 128.5 66.55 128.69 66.03 128.89C63.07 129.99 59.05 131.49 54.28 129.22C52.6 131.09 50.16 131.87 47.42 131.87V131.86ZM10.51 77.9699C6.87002 77.9699 4.76002 82.4999 4.00002 84.5499C0.320016 94.4199 1.86002 112.86 14.29 120.39C18.11 122.71 22.35 123.42 26.45 124.11C30.13 124.73 33.93 125.37 37.26 127.19C42.91 130.27 50.36 131.73 53.38 127.65L53.82 127.06L54.47 127.41C58.85 129.76 62.51 128.4 65.45 127.3C66 127.1 66.52 126.9 67.02 126.74C67.9 126.45 68.77 126.6 69.53 126.74C69.84 126.79 70.13 126.84 70.4 126.86C74 127.13 76.78 126.23 78.68 124.19C82.85 119.69 81.99 110.62 81.43 106.93C81.14 105.04 81.37 103.12 82.1 101.38C85.64 92.8699 89.1 88.1099 93.99 81.8199C98.87 75.5399 99.04 61.7599 99.05 61.6299C99.05 42.7499 85.06 37.3999 79.05 35.9699C77.39 35.5799 75.88 34.6399 74.79 33.3399C72.02 30.0099 69.56 28.4599 67.98 27.7399C66.79 27.1999 65.43 27.2499 64.33 27.8799C60.56 30.0399 58.07 34.6199 56.92 37.1599C56.35 38.4299 55.41 39.4699 54.21 40.1699C36.34 50.5599 24.7 63.8199 19.6 79.5899C15.5 92.2799 16.94 103.03 17.75 107.06C17.87 107.66 17.54 108.25 16.96 108.47C16.38 108.68 15.74 108.44 15.44 107.9C12.89 103.29 12.29 95.8899 13.58 85.2499C14.39 78.5799 11.43 78.0599 11.3 78.0399C11.03 77.9899 10.77 77.9699 10.52 77.9699H10.51Z" fill="#003595" stroke="#003595" stroke-miterlimit="10"/>
<path d="M47.91 131.97C46.32 131.97 44.83 131.66 43.69 131.42C43.16 131.31 42.7 131.22 42.37 131.18C38.59 130.76 32.23 124.96 30.66 122.73C30.39 122.35 30.49 121.82 30.87 121.55C31.25 121.28 31.78 121.37 32.05 121.76C33.46 123.77 39.48 129.16 42.56 129.5C42.98 129.55 43.47 129.65 44.04 129.77C46.33 130.25 49.79 130.97 52.3 128.84C54.9 126.63 56.06 121.76 55.74 114.38C55.72 113.91 56.08 113.52 56.55 113.5C57.02 113.49 57.41 113.84 57.43 114.31C57.78 122.35 56.46 127.53 53.4 130.13C51.71 131.56 49.75 131.98 47.91 131.98V131.97Z" fill="#003595" stroke="#003595" stroke-miterlimit="10"/>
<path d="M60.95 130.53C59.12 130.53 56.74 130.14 53.75 128.94C53.32 128.77 53.1 128.27 53.28 127.84C53.45 127.41 53.95 127.2 54.38 127.37C61.88 130.36 64.84 127.84 64.87 127.82L64.97 127.73L65.11 127.67C77.17 122.56 75.54 109.7 75.52 109.57C75.46 109.11 75.78 108.68 76.24 108.61C76.7 108.54 77.13 108.87 77.2 109.33C77.22 109.47 79.01 123.53 65.89 129.17C65.44 129.52 63.9 130.53 60.96 130.53H60.95Z" fill="#003595" stroke="#003595" stroke-miterlimit="10"/>
<path d="M93.7 63.5899C91.75 63.5899 89.6 63.2699 88.49 62.0699C88.02 61.5699 87.53 60.6699 87.85 59.2899C88.39 56.8899 89.43 53.0799 90.94 47.9499C90.94 47.8999 90.96 47.8499 90.97 47.8099C91.01 47.6799 91.05 47.5599 91.09 47.4299C91.11 47.3399 91.13 47.2899 91.14 47.2699H91.15C91.34 46.8199 91.61 46.4999 92.2 46.6699C92.8 46.8499 92.83 47.3099 92.74 47.7499H92.75C92.75 47.7499 92.73 47.8199 92.71 47.8899C92.68 47.9999 92.65 48.0999 92.62 48.1999C91.08 53.3999 90.03 57.2499 89.49 59.6599C89.33 60.3799 89.55 60.7199 89.73 60.9199C90.72 61.9899 93.93 62.0699 96.68 61.6699C97.14 61.5999 97.57 61.9199 97.64 62.3899C97.71 62.8499 97.39 63.2799 96.93 63.3499C96.17 63.4599 94.98 63.5999 93.7 63.5999V63.5899Z" fill="#003595" stroke="#003595" stroke-miterlimit="10"/>
<path d="M48.32 131.74C48 131.74 47.69 131.56 47.55 131.24C46.83 129.67 46.02 128.12 45.12 126.64C44.88 126.24 45 125.72 45.4 125.48C45.8 125.23 46.32 125.36 46.56 125.76C47.49 127.3 48.35 128.9 49.09 130.54C49.28 130.97 49.09 131.47 48.67 131.66C48.56 131.71 48.44 131.74 48.32 131.74Z" fill="#003595" stroke="#003595" stroke-miterlimit="10"/>
<path d="M51.69 130.62C51.25 130.62 50.88 130.29 50.85 129.84C50.71 128.2 50.21 126.57 49.39 125.14C49.16 124.73 49.3 124.22 49.71 123.98C50.12 123.75 50.63 123.89 50.87 124.3C51.81 125.94 52.39 127.81 52.55 129.7C52.59 130.17 52.24 130.58 51.78 130.61C51.76 130.61 51.73 130.61 51.71 130.61L51.69 130.62Z" fill="#003595" stroke="#003595" stroke-miterlimit="10"/>
<path d="M56.37 129.46C56.12 129.46 55.87 129.35 55.7 129.13C55.41 128.76 55.48 128.23 55.85 127.94C57.08 126.98 58.14 125.81 58.97 124.48C59.22 124.09 59.74 123.97 60.14 124.22C60.54 124.47 60.66 124.99 60.41 125.39C59.47 126.89 58.29 128.19 56.9 129.28C56.75 129.4 56.56 129.46 56.38 129.46H56.37Z" fill="#003595" stroke="#003595" stroke-miterlimit="10"/>
<path d="M59.9601 130.42C59.6601 130.42 59.3701 130.26 59.2201 129.98C58.9901 129.57 59.1401 129.06 59.5501 128.83C61.2001 127.92 62.6101 126.6 63.6201 125.01C63.8701 124.62 64.4001 124.5 64.7901 124.75C65.1901 125 65.3001 125.52 65.0501 125.92C63.8901 127.75 62.2701 129.27 60.3701 130.31C60.2401 130.38 60.1001 130.41 59.9601 130.41V130.42Z" fill="#003595" stroke="#003595" stroke-miterlimit="10"/>
<path d="M75.93 57.2801C75.72 57.6501 75.08 57.6801 74.48 57.3501C73.89 57.0201 73.57 56.4501 73.78 56.0801C73.99 55.7101 74.63 55.6801 75.23 56.0101C75.82 56.3401 76.14 56.9101 75.93 57.2801Z" fill="#003595"/>
<path d="M87.3201 59.6399C87.1601 59.6399 86.9901 59.5999 86.8401 59.5299C84.1101 58.1499 80.9801 58.3299 80.9501 58.3299C80.3601 58.3599 79.8501 57.9199 79.8201 57.3299C79.7801 56.7399 80.2301 56.2299 80.8201 56.1999C80.9701 56.1999 84.5601 55.9799 87.8101 57.6299C88.3401 57.8999 88.5501 58.5399 88.2801 59.0699C88.0901 59.4399 87.7201 59.6499 87.3301 59.6499L87.3201 59.6399Z" fill="#003595"/>
<path d="M71.0601 52.82C70.6801 52.82 70.3101 52.62 70.1201 52.26C70.1101 52.23 68.6001 49.46 66.0101 47.87C65.5101 47.56 65.3501 46.9 65.6601 46.4C65.9701 45.9 66.6301 45.74 67.1301 46.05C70.2301 47.95 71.9301 51.12 72.0001 51.25C72.2801 51.77 72.0801 52.42 71.5601 52.69C71.4001 52.77 71.2301 52.81 71.0601 52.81V52.82Z" fill="#003595"/>
<path d="M72.89 58.8101C72.58 58.8101 72.31 58.7601 72.09 58.6901C70.52 58.1901 69.92 56.4301 69.86 56.2301C69.68 55.6701 69.99 55.0701 70.55 54.8901C71.11 54.7101 71.71 55.0201 71.89 55.5801C71.99 55.8801 72.32 56.5301 72.73 56.6501C73.09 56.7601 73.6 56.4301 73.87 56.2201C74.34 55.8601 75.01 55.9501 75.37 56.4201C75.73 56.8901 75.64 57.5601 75.17 57.9201C74.28 58.6001 73.5 58.8101 72.88 58.8101H72.89Z" fill="#003595"/>
<path d="M76.6301 60.73C75.9601 60.73 75.1101 60.59 74.4301 59.99C73.9001 59.53 73.3001 58.63 73.4701 56.96C73.5301 56.37 74.0501 55.96 74.6401 56C75.2301 56.06 75.6501 56.58 75.6001 57.17C75.5701 57.51 75.5501 58.12 75.8301 58.37C76.1501 58.65 76.8801 58.6 77.1901 58.53C77.7601 58.39 78.3401 58.75 78.4801 59.32C78.6201 59.89 78.2701 60.47 77.7001 60.61C77.6101 60.63 77.1901 60.73 76.6401 60.73H76.6301Z" fill="#003595"/>
</g>
<defs>
<clipPath id="clip0_450_3071">
<rect width="188.72" height="132.47" fill="white"/>
</clipPath>
</defs>
</svg>
