<svg width="178" height="129" viewBox="0 0 178 129" fill="none" xmlns="http://www.w3.org/2000/svg">
<g clip-path="url(#clip0_450_140)">
<path d="M88.0499 121.85C88.0499 122.12 87.9999 122.36 87.8999 122.59C87.7999 122.81 87.6699 123.01 87.4999 123.17C87.3299 123.34 87.1399 123.47 86.9199 123.56C86.6999 123.65 86.4599 123.7 86.1999 123.7H80.7799V128.02H78.5699V115.41H86.1999C86.4599 115.41 86.6999 115.46 86.9199 115.55C87.1399 115.65 87.3399 115.78 87.4999 115.94C87.6699 116.11 87.7999 116.3 87.8999 116.52C87.9999 116.74 88.0499 116.99 88.0499 117.26V121.84V121.85ZM85.5499 121.72C85.6299 121.72 85.6999 121.69 85.7599 121.64C85.8099 121.59 85.8399 121.52 85.8399 121.43V117.69C85.8399 117.6 85.8099 117.54 85.7599 117.48C85.7099 117.43 85.6399 117.4 85.5499 117.4H80.7699V121.72H85.5499Z" fill="#007838"/>
<path d="M99.2799 128.03H91.6599C91.3999 128.03 91.1599 127.98 90.9399 127.89C90.7199 127.79 90.5199 127.66 90.3599 127.5C90.1899 127.33 90.0599 127.14 89.9599 126.92C89.8599 126.7 89.8099 126.45 89.8099 126.18V117.28C89.8099 117.01 89.8599 116.77 89.9599 116.54C90.0599 116.32 90.1899 116.12 90.3599 115.96C90.5299 115.79 90.7199 115.66 90.9399 115.57C91.1599 115.47 91.3999 115.43 91.6599 115.43H98.9599V117.41H92.2999C92.2099 117.41 92.1499 117.44 92.0899 117.49C92.0299 117.54 92.0099 117.61 92.0099 117.7V120.39H98.5499V122.37H92.0099V125.76C92.0099 125.84 92.0399 125.91 92.0899 125.97C92.1399 126.02 92.2099 126.05 92.2999 126.05H99.2799V128.03Z" fill="#007838"/>
<path d="M106.62 128.03H104.41V117.41H100.73V115.43H110.3V117.41H106.62V128.03Z" fill="#007838"/>
<path d="M122.08 128.03H119.41L115.31 122.19L114.06 123.53V128.03H111.85V115.42H114.06V120.44L118.72 115.42H121.6L116.86 120.52L122.08 128.02V128.03Z" fill="#007838"/>
<path d="M131.97 128.03H124.35C124.09 128.03 123.85 127.98 123.63 127.89C123.41 127.79 123.21 127.66 123.05 127.5C122.88 127.33 122.75 127.14 122.65 126.92C122.55 126.7 122.5 126.45 122.5 126.18V117.28C122.5 117.01 122.55 116.77 122.65 116.54C122.75 116.32 122.88 116.12 123.05 115.96C123.22 115.79 123.41 115.66 123.63 115.57C123.85 115.47 124.09 115.43 124.35 115.43H131.65V117.41H124.99C124.9 117.41 124.84 117.44 124.78 117.49C124.72 117.54 124.7 117.61 124.7 117.7V120.39H131.24V122.37H124.7V125.76C124.7 125.84 124.73 125.91 124.78 125.97C124.83 126.02 124.9 126.05 124.99 126.05H131.97V128.03Z" fill="#007838"/>
<path d="M143.17 128.03H135.55C135.29 128.03 135.05 127.98 134.83 127.89C134.61 127.79 134.41 127.66 134.25 127.5C134.08 127.33 133.95 127.14 133.85 126.92C133.75 126.7 133.7 126.45 133.7 126.18V117.28C133.7 117.01 133.75 116.77 133.85 116.54C133.95 116.32 134.08 116.12 134.25 115.96C134.42 115.79 134.61 115.66 134.83 115.57C135.05 115.47 135.29 115.43 135.55 115.43H142.85V117.41H136.19C136.1 117.41 136.04 117.44 135.98 117.49C135.92 117.54 135.9 117.61 135.9 117.7V120.39H142.44V122.37H135.9V125.76C135.9 125.84 135.93 125.91 135.98 125.97C136.03 126.02 136.1 126.05 136.19 126.05H143.17V128.03Z" fill="#007838"/>
<path d="M154.48 121.85C154.48 122.12 154.43 122.36 154.33 122.59C154.23 122.81 154.1 123.01 153.93 123.17C153.76 123.34 153.57 123.47 153.35 123.56C153.13 123.65 152.89 123.7 152.63 123.7H147.21V128.02H145V115.41H152.63C152.89 115.41 153.13 115.46 153.35 115.55C153.57 115.65 153.77 115.78 153.93 115.94C154.1 116.11 154.23 116.3 154.33 116.52C154.43 116.74 154.48 116.99 154.48 117.26V121.84V121.85ZM151.98 121.72C152.06 121.72 152.13 121.69 152.19 121.64C152.24 121.59 152.27 121.52 152.27 121.43V117.69C152.27 117.6 152.24 117.54 152.19 117.48C152.14 117.43 152.07 117.4 151.98 117.4H147.2V121.72H151.98Z" fill="#007838"/>
<path d="M165.71 128.03H158.09C157.83 128.03 157.59 127.98 157.37 127.89C157.15 127.79 156.95 127.66 156.79 127.5C156.62 127.33 156.49 127.14 156.39 126.92C156.29 126.7 156.24 126.45 156.24 126.18V117.28C156.24 117.01 156.29 116.77 156.39 116.54C156.49 116.32 156.62 116.12 156.79 115.96C156.96 115.79 157.15 115.66 157.37 115.57C157.59 115.47 157.83 115.43 158.09 115.43H165.39V117.41H158.73C158.64 117.41 158.58 117.44 158.52 117.49C158.46 117.54 158.44 117.61 158.44 117.7V120.39H164.98V122.37H158.44V125.76C158.44 125.84 158.47 125.91 158.52 125.97C158.57 126.02 158.64 126.05 158.73 126.05H165.71V128.03Z" fill="#007838"/>
<path d="M177.78 128.03H175.28L172.67 122.93H169.74V128.03H167.53V115.42H175.16C175.42 115.42 175.66 115.47 175.88 115.56C176.1 115.66 176.3 115.79 176.46 115.95C176.63 116.12 176.76 116.31 176.86 116.53C176.96 116.75 177.01 117 177.01 117.27V121.06C177.01 121.33 176.96 121.57 176.86 121.8C176.76 122.02 176.63 122.22 176.46 122.38C176.29 122.55 176.1 122.68 175.88 122.77C175.66 122.86 175.42 122.91 175.16 122.91H175.11L177.77 128.01L177.78 128.03ZM174.53 120.94C174.61 120.94 174.68 120.91 174.74 120.86C174.79 120.81 174.82 120.74 174.82 120.65V117.69C174.82 117.6 174.79 117.54 174.74 117.48C174.69 117.43 174.62 117.4 174.53 117.4H169.75V120.94H174.53Z" fill="#007838"/>
<path d="M24.72 73.54C24.73 72.82 25.32 72.24 26.04 72.24C26.04 72.24 26.05 72.24 26.06 72.24C26.79 72.25 27.37 72.85 27.36 73.58C27.36 74.2 27.32 74.91 27.29 75.67C27.14 79.38 26.91 85 29.11 87.29C29.82 88.03 30.77 88.39 32.02 88.39C33.27 88.39 34.19 88.04 34.9 87.31C37.05 85.08 36.87 79.8 36.74 75.94C36.71 75.07 36.68 74.26 36.68 73.56C36.68 72.86 37.27 72.24 38 72.24C38.73 72.24 39.32 72.83 39.32 73.56C39.32 74.24 39.35 75.01 39.38 75.85C39.53 80.18 39.73 86.11 36.8 89.14C35.59 90.39 33.98 91.03 32.03 91.03C30.08 91.03 28.44 90.39 27.22 89.12C24.24 86.02 24.49 79.98 24.67 75.57C24.7 74.83 24.73 74.15 24.74 73.54H24.72Z" fill="#007838"/>
<path d="M67.39 84.19C67.39 85.54 66.3 86.63 64.95 86.63C63.6 86.63 62.51 85.54 62.51 84.19C62.51 82.84 63.6 81.75 64.95 81.75C66.3 81.75 67.39 82.84 67.39 84.19Z" fill="#007838"/>
<path d="M54.82 128.83C54.44 128.83 54.06 128.72 53.73 128.5C52.86 127.93 32.21 114.32 18.94 93.56C18.28 92.53 17.64 91.49 17.03 90.45C16.85 90.14 16.75 89.78 16.75 89.42V89.31C16.75 88.92 16.75 68.41 16.75 67.16C16.71 66.42 16.51 60.93 19.15 56.97C25.78 47.01 42.35 46.34 56.88 55.43C71.45 64.55 78.21 80.1 71.95 90.09C67.3 97.51 56.81 100.02 45.28 96.68V105.34C45.28 106.44 44.38 107.34 43.28 107.34C42.18 107.34 41.28 106.44 41.28 105.34V93.92C41.28 93.27 41.6 92.66 42.13 92.28C42.67 91.91 43.35 91.82 43.96 92.04C54.53 95.89 64.64 94.22 68.55 87.97C73.64 79.85 67.44 66.77 54.75 58.82C42.28 51.01 27.8 51.18 22.47 59.18C20.46 62.2 20.74 66.91 20.74 66.96C20.74 67 20.74 67.05 20.74 67.09C20.74 69.15 20.74 85.86 20.74 88.88C21.24 89.72 21.76 90.56 22.3 91.4C33.4 108.76 50.37 121.29 54.81 124.4C59.25 121.29 76.22 108.76 87.32 91.4C104.4 64.68 105.61 34.53 105.61 26.53C100.29 26.81 86.27 27.1 76.55 23.29C67.34 19.67 58.37 9.56 54.8 5.18C51.23 9.55 42.27 19.67 33.05 23.29C23.33 27.11 9.31001 26.81 3.99001 26.53C3.99001 31.04 4.35001 42.61 7.73001 56.54C7.99001 57.61 7.33001 58.69 6.26001 58.96C5.19001 59.22 4.11001 58.56 3.84001 57.49C-0.629994 38.98 0.0200057 24.89 0.0500057 24.3C0.0800057 23.76 0.320006 23.25 0.730006 22.89C1.14001 22.53 1.67001 22.36 2.22001 22.4C2.40001 22.41 20.54 23.91 31.61 19.56C42.18 15.41 53.11 0.900002 53.22 0.760002C53.97 -0.249998 55.67 -0.249998 56.43 0.760002C56.54 0.910002 67.46 15.42 78.04 19.57C89.11 23.92 107.25 22.43 107.43 22.41C107.97 22.36 108.51 22.54 108.92 22.9C109.33 23.26 109.58 23.76 109.6 24.31C109.68 25.81 111.23 61.49 90.72 93.57C77.45 114.33 56.8 127.94 55.93 128.51C55.6 128.73 55.22 128.84 54.84 128.84L54.82 128.83Z" fill="#007838"/>
<path d="M77.2 39.7H72.61V35.11C72.61 33.66 71.43 32.49 69.99 32.49C68.55 32.49 67.36 33.67 67.36 35.11V39.7H62.77C61.32 39.7 60.15 40.88 60.15 42.32C60.15 43.76 61.33 44.94 62.77 44.94H67.36V49.53C67.36 50.98 68.54 52.15 69.99 52.15C71.44 52.15 72.61 50.97 72.61 49.53V44.94H77.2C78.65 44.94 79.82 43.76 79.82 42.32C79.82 40.88 78.64 39.7 77.2 39.7Z" fill="#007838"/>
<path d="M90.39 50.66H88.02V48.29C88.02 47.54 87.41 46.94 86.67 46.94C85.93 46.94 85.32 47.55 85.32 48.29V50.66H82.95C82.2 50.66 81.6 51.27 81.6 52.01C81.6 52.75 82.21 53.36 82.95 53.36H85.32V55.73C85.32 56.48 85.93 57.08 86.67 57.08C87.41 57.08 88.02 56.47 88.02 55.73V53.36H90.39C91.14 53.36 91.74 52.75 91.74 52.01C91.74 51.27 91.13 50.66 90.39 50.66Z" fill="#007838"/>
<path d="M86.85 35.71H85.14V34C85.14 33.46 84.7 33.03 84.17 33.03C83.64 33.03 83.2 33.47 83.2 34V35.71H81.49C80.95 35.71 80.52 36.15 80.52 36.68C80.52 37.21 80.96 37.65 81.49 37.65H83.2V39.36C83.2 39.9 83.64 40.33 84.17 40.33C84.7 40.33 85.14 39.89 85.14 39.36V37.65H86.85C87.39 37.65 87.82 37.21 87.82 36.68C87.82 36.15 87.38 35.71 86.85 35.71Z" fill="#007838"/>
</g>
<defs>
<clipPath id="clip0_450_140">
<rect width="177.78" height="128.83" fill="white"/>
</clipPath>
</defs>
</svg>
