<svg width="99" height="72" viewBox="0 0 99 72" fill="none" xmlns="http://www.w3.org/2000/svg">
<g clip-path="url(#clip0_450_2700)">
<path d="M49.0323 68.0992C49.0323 68.2501 49.0044 68.3842 48.9488 68.5127C48.8931 68.6357 48.8207 68.7475 48.726 68.8369C48.6313 68.9319 48.5255 69.0045 48.403 69.0548C48.2805 69.1051 48.1469 69.1331 48.0021 69.1331H44.9839V71.5474H43.7532V64.5H48.0021C48.1469 64.5 48.2805 64.5279 48.403 64.5782C48.5255 64.6341 48.6369 64.7068 48.726 64.7962C48.8207 64.8912 48.8931 64.9974 48.9488 65.1203C49.0044 65.2433 49.0323 65.383 49.0323 65.5339V68.0936V68.0992ZM47.6401 68.0265C47.6847 68.0265 47.7236 68.0097 47.7571 67.9818C47.7849 67.9539 47.8016 67.9147 47.8016 67.8644V65.7742C47.8016 65.7239 47.7849 65.6904 47.7571 65.6569C47.7292 65.6289 47.6902 65.6122 47.6401 65.6122H44.9783V68.0265H47.6401Z" fill="white"/>
<path d="M55.2859 71.5531H51.0425C50.8978 71.5531 50.7641 71.5251 50.6416 71.4748C50.5191 71.4189 50.4077 71.3463 50.3186 71.2569C50.2239 71.1619 50.1515 71.0557 50.0959 70.9327C50.0402 70.8098 50.0123 70.67 50.0123 70.5191V65.5452C50.0123 65.3943 50.0402 65.2601 50.0959 65.1316C50.1515 65.0086 50.2239 64.8969 50.3186 64.8074C50.4133 64.7124 50.5191 64.6398 50.6416 64.5895C50.7641 64.5336 50.8978 64.5112 51.0425 64.5112H55.1077V65.6178H51.3989C51.3488 65.6178 51.3154 65.6346 51.282 65.6625C51.2486 65.6905 51.2374 65.7296 51.2374 65.7799V67.2833H54.8794V68.3898H51.2374V70.2844C51.2374 70.3291 51.2541 70.3683 51.282 70.4018C51.3098 70.4297 51.3488 70.4465 51.3989 70.4465H55.2859V71.5531Z" fill="white"/>
<path d="M59.3733 71.5531H58.1427V65.6178H56.0934V64.5112H61.4226V65.6178H59.3733V71.5531Z" fill="white"/>
<path d="M67.9825 71.5528H66.4957L64.2125 68.289L63.5164 69.0379V71.5528H62.2858V64.5054H63.5164V67.3109L66.1115 64.5054H67.7152L65.0757 67.3556L67.9825 71.5472V71.5528Z" fill="white"/>
<path d="M73.49 71.5531H69.2466C69.1018 71.5531 68.9682 71.5251 68.8457 71.4748C68.7232 71.4189 68.6118 71.3463 68.5227 71.2569C68.428 71.1619 68.3556 71.0557 68.3 70.9327C68.2443 70.8098 68.2164 70.67 68.2164 70.5191V65.5452C68.2164 65.3943 68.2443 65.2601 68.3 65.1316C68.3556 65.0086 68.428 64.8969 68.5227 64.8074C68.6174 64.7124 68.7232 64.6398 68.8457 64.5895C68.9682 64.5336 69.1018 64.5112 69.2466 64.5112H73.3118V65.6178H69.603C69.5529 65.6178 69.5195 65.6346 69.4861 65.6625C69.4527 65.6905 69.4415 65.7296 69.4415 65.7799V67.2833H73.0835V68.3898H69.4415V70.2844C69.4415 70.3291 69.4582 70.3683 69.4861 70.4018C69.5139 70.4297 69.5529 70.4465 69.603 70.4465H73.49V71.5531Z" fill="white"/>
<path d="M79.7269 71.5531H75.4836C75.3388 71.5531 75.2051 71.5251 75.0826 71.4748C74.9601 71.4189 74.8487 71.3463 74.7596 71.2569C74.665 71.1619 74.5926 71.0557 74.5369 70.9327C74.4812 70.8098 74.4534 70.67 74.4534 70.5191V65.5452C74.4534 65.3943 74.4812 65.2601 74.5369 65.1316C74.5926 65.0086 74.665 64.8969 74.7596 64.8074C74.8543 64.7124 74.9601 64.6398 75.0826 64.5895C75.2051 64.5336 75.3388 64.5112 75.4836 64.5112H79.5487V65.6178H75.84C75.7899 65.6178 75.7564 65.6346 75.723 65.6625C75.6896 65.6905 75.6785 65.7296 75.6785 65.7799V67.2833H79.3204V68.3898H75.6785V70.2844C75.6785 70.3291 75.6952 70.3683 75.723 70.4018C75.7509 70.4297 75.7899 70.4465 75.84 70.4465H79.7269V71.5531Z" fill="white"/>
<path d="M86.0251 68.0992C86.0251 68.2501 85.9972 68.3842 85.9416 68.5127C85.8859 68.6357 85.8135 68.7475 85.7188 68.8369C85.6241 68.9319 85.5183 69.0045 85.3958 69.0548C85.2733 69.1051 85.1397 69.1331 84.9949 69.1331H81.9767V71.5474H80.746V64.5H84.9949C85.1397 64.5 85.2733 64.5279 85.3958 64.5782C85.5183 64.6341 85.6297 64.7068 85.7188 64.7962C85.8135 64.8912 85.8859 64.9974 85.9416 65.1203C85.9972 65.2433 86.0251 65.383 86.0251 65.5339V68.0936V68.0992ZM84.6329 68.0265C84.6775 68.0265 84.7164 68.0097 84.7499 67.9818C84.7777 67.9539 84.7944 67.9147 84.7944 67.8644V65.7742C84.7944 65.7239 84.7777 65.6904 84.7499 65.6569C84.722 65.6289 84.683 65.6122 84.6329 65.6122H81.9711V68.0265H84.6329Z" fill="white"/>
<path d="M92.2787 71.5531H88.0353C87.8905 71.5531 87.7569 71.5251 87.6344 71.4748C87.5119 71.4189 87.4005 71.3463 87.3114 71.2569C87.2167 71.1619 87.1443 71.0557 87.0887 70.9327C87.033 70.8098 87.0051 70.67 87.0051 70.5191V65.5452C87.0051 65.3943 87.033 65.2601 87.0887 65.1316C87.1443 65.0086 87.2167 64.8969 87.3114 64.8074C87.4061 64.7124 87.5119 64.6398 87.6344 64.5895C87.7569 64.5336 87.8905 64.5112 88.0353 64.5112H92.1005V65.6178H88.3917C88.3416 65.6178 88.3082 65.6346 88.2748 65.6625C88.2414 65.6905 88.2302 65.7296 88.2302 65.7799V67.2833H91.8721V68.3898H88.2302V70.2844C88.2302 70.3291 88.2469 70.3683 88.2748 70.4018C88.3026 70.4297 88.3416 70.4465 88.3917 70.4465H92.2787V71.5531Z" fill="white"/>
<path d="M99 71.5528H97.6078L96.1544 68.7025H94.5228V71.5528H93.2921V64.5054H97.541C97.6858 64.5054 97.8195 64.5333 97.942 64.5836C98.0645 64.6395 98.1759 64.7122 98.265 64.8016C98.3596 64.8966 98.432 65.0028 98.4877 65.1257C98.5434 65.2487 98.5712 65.3884 98.5712 65.5393V67.6574C98.5712 67.8083 98.5434 67.9425 98.4877 68.071C98.432 68.194 98.3596 68.3057 98.265 68.3951C98.1703 68.4902 98.0645 68.5628 97.942 68.6131C97.8195 68.6634 97.6858 68.6914 97.541 68.6914H97.5132L98.9944 71.5416L99 71.5528ZM97.1902 67.5904C97.2347 67.5904 97.2737 67.5736 97.3071 67.5457C97.335 67.5177 97.3517 67.4786 97.3517 67.4283V65.774C97.3517 65.7237 97.335 65.6902 97.3071 65.6567C97.2793 65.6287 97.2403 65.6119 97.1902 65.6119H94.5284V67.5904H97.1902Z" fill="white"/>
<path d="M13.7657 41.0996C13.7713 40.6972 14.0999 40.373 14.5008 40.373C14.5008 40.373 14.5064 40.373 14.5119 40.373C14.9185 40.3786 15.2414 40.714 15.2359 41.1219C15.2359 41.4684 15.2136 41.8652 15.1969 42.29C15.1134 44.3634 14.9853 47.5043 16.2104 48.7841C16.6058 49.1977 17.1348 49.3989 17.8309 49.3989C18.527 49.3989 19.0393 49.2033 19.4347 48.7953C20.6319 47.549 20.5317 44.5982 20.4593 42.4409C20.4426 41.9547 20.4259 41.502 20.4259 41.1108C20.4259 40.7195 20.7544 40.373 21.1609 40.373C21.5675 40.373 21.896 40.7028 21.896 41.1108C21.896 41.4908 21.9127 41.9211 21.9294 42.3906C22.013 44.8105 22.1243 48.1247 20.4927 49.8181C19.8189 50.5166 18.9223 50.8743 17.8364 50.8743C16.7506 50.8743 15.8373 50.5166 15.1579 49.8069C13.4984 48.0744 13.6377 44.6987 13.7379 42.2341C13.7546 41.8205 13.7713 41.4405 13.7769 41.0996H13.7657Z" fill="white"/>
<path d="M37.5273 47.0516C37.5273 47.8061 36.9203 48.4153 36.1686 48.4153C35.4168 48.4153 34.8098 47.8061 34.8098 47.0516C34.8098 46.2972 35.4168 45.688 36.1686 45.688C36.9203 45.688 37.5273 46.2972 37.5273 47.0516Z" fill="white"/>
<path d="M30.5275 72.0001C30.3159 72.0001 30.1043 71.9386 29.9205 71.8156C29.4361 71.4971 17.9367 63.8908 10.5471 52.2885C10.1796 51.7129 9.82318 51.1316 9.48349 50.5504C9.38326 50.3772 9.32757 50.176 9.32757 49.9748V49.9133C9.32757 49.6953 9.32757 38.2328 9.32757 37.5342C9.30529 37.1206 9.19392 34.0524 10.6641 31.8392C14.3561 26.2728 23.5834 25.8984 31.6747 30.9786C39.7882 36.0755 43.5527 44.766 40.0667 50.3492C37.4772 54.4961 31.6357 55.8988 25.215 54.0322V58.8721C25.215 59.4868 24.7138 59.9898 24.1013 59.9898C23.4887 59.9898 22.9875 59.4868 22.9875 58.8721V52.4897C22.9875 52.1264 23.1657 51.7855 23.4609 51.5731C23.7616 51.3664 24.1403 51.3161 24.4799 51.439C30.366 53.5907 35.996 52.6574 38.1733 49.1644C41.0078 44.6263 37.5552 37.3162 30.4886 32.8732C23.5444 28.5083 15.481 28.6033 12.5129 33.0744C11.3935 34.7622 11.5495 37.3945 11.5495 37.4224C11.5495 37.4448 11.5495 37.4727 11.5495 37.4951C11.5495 38.6463 11.5495 47.9852 11.5495 49.673C11.8279 50.1424 12.1175 50.6119 12.4182 51.0813C18.5994 60.7834 28.0495 67.7861 30.522 69.5242C32.9945 67.7861 42.4445 60.7834 48.6257 51.0813C58.1371 36.1482 58.8109 19.2981 58.8109 14.827C55.8483 14.9835 48.041 15.1456 42.6283 13.0163C37.4995 10.9932 32.5044 5.34292 30.5164 2.89505C28.5284 5.33733 23.5388 10.9932 18.4045 13.0163C12.9918 15.1512 5.18447 14.9835 2.22193 14.827C2.22193 17.3476 2.42241 23.8138 4.30462 31.5989C4.44941 32.1969 4.08187 32.8005 3.48602 32.9514C2.89017 33.0967 2.28876 32.7279 2.1384 32.1299C-0.350797 21.7851 0.0111668 13.9105 0.0278729 13.5808C0.0445789 13.279 0.178227 12.9939 0.406543 12.7927C0.634859 12.5915 0.929999 12.4965 1.23628 12.5189C1.33651 12.5245 11.4381 13.3628 17.6026 10.9317C23.4887 8.61235 29.5753 0.503056 29.6365 0.424813C30.0542 -0.139651 31.0009 -0.139651 31.4241 0.424813C31.4853 0.508645 37.5663 8.61794 43.458 10.9373C49.6225 13.3684 59.7241 12.5357 59.8244 12.5245C60.1251 12.4965 60.4258 12.5971 60.6541 12.7983C60.8824 12.9995 61.0216 13.279 61.0328 13.5863C61.0773 14.4247 61.9405 34.3654 50.5191 52.2941C43.1295 63.8964 31.6301 71.5027 31.1457 71.8212C30.9619 71.9442 30.7503 72.0057 30.5387 72.0057L30.5275 72.0001Z" fill="white"/>
<path d="M42.9902 22.1872H40.4342V19.622C40.4342 18.8116 39.7771 18.1577 38.9752 18.1577C38.1733 18.1577 37.5106 18.8172 37.5106 19.622V22.1872H34.9546C34.1471 22.1872 33.4956 22.8467 33.4956 23.6515C33.4956 24.4562 34.1527 25.1157 34.9546 25.1157H37.5106V27.681C37.5106 28.4913 38.1677 29.1452 38.9752 29.1452C39.7826 29.1452 40.4342 28.4857 40.4342 27.681V25.1157H42.9902C43.7977 25.1157 44.4492 24.4562 44.4492 23.6515C44.4492 22.8467 43.7921 22.1872 42.9902 22.1872Z" fill="white"/>
<path d="M50.3353 28.3129H49.0155V26.9884C49.0155 26.5692 48.6758 26.2339 48.2638 26.2339C47.8517 26.2339 47.512 26.5748 47.512 26.9884V28.3129H46.1922C45.7745 28.3129 45.4404 28.6538 45.4404 29.0674C45.4404 29.481 45.7801 29.8219 46.1922 29.8219H47.512V31.1464C47.512 31.5656 47.8517 31.9009 48.2638 31.9009C48.6758 31.9009 49.0155 31.56 49.0155 31.1464V29.8219H50.3353C50.753 29.8219 51.0871 29.481 51.0871 29.0674C51.0871 28.6538 50.7474 28.3129 50.3353 28.3129Z" fill="white"/>
<path d="M48.364 19.9573H47.4117V19.0016C47.4117 18.6998 47.1667 18.4595 46.8716 18.4595C46.5764 18.4595 46.3314 18.7054 46.3314 19.0016V19.9573H45.3792C45.0784 19.9573 44.839 20.2032 44.839 20.4994C44.839 20.7956 45.084 21.0415 45.3792 21.0415H46.3314V21.9972C46.3314 22.299 46.5764 22.5393 46.8716 22.5393C47.1667 22.5393 47.4117 22.2934 47.4117 21.9972V21.0415H48.364C48.6647 21.0415 48.9041 20.7956 48.9041 20.4994C48.9041 20.2032 48.6591 19.9573 48.364 19.9573Z" fill="white"/>
</g>
<defs>
<clipPath id="clip0_450_2700">
<rect width="99" height="72" fill="white"/>
</clipPath>
</defs>
</svg>
