<svg width="106" height="32" viewBox="0 0 106 32" fill="none" xmlns="http://www.w3.org/2000/svg">
<path d="M6.19986 18.2649C6.20237 18.086 6.35035 17.942 6.53093 17.942C6.53093 17.942 6.53344 17.942 6.53594 17.942C6.71903 17.9445 6.8645 18.0935 6.86199 18.2748C6.86199 18.4288 6.85196 18.6051 6.84444 18.7939C6.80682 19.7154 6.74913 21.1113 7.3009 21.68C7.47898 21.8638 7.71724 21.9532 8.03075 21.9532C8.34426 21.9532 8.575 21.8663 8.75307 21.685C9.29231 21.1311 9.24716 19.8197 9.21456 18.861C9.20703 18.6449 9.19951 18.4437 9.19951 18.2698C9.19951 18.096 9.34748 17.942 9.53057 17.942C9.71366 17.942 9.86163 18.0885 9.86163 18.2698C9.86163 18.4387 9.86916 18.63 9.87668 18.8386C9.9143 19.9141 9.96447 21.3869 9.2296 22.1395C8.92613 22.45 8.52233 22.609 8.03326 22.609C7.54419 22.609 7.13286 22.45 6.82688 22.1346C6.07948 21.3646 6.14218 19.8644 6.18732 18.7691C6.19485 18.5853 6.20237 18.4164 6.20488 18.2649H6.19986Z" fill="#007838"/>
<path d="M16.9017 20.9101C16.9017 21.2454 16.6283 21.5161 16.2897 21.5161C15.9511 21.5161 15.6777 21.2454 15.6777 20.9101C15.6777 20.5748 15.9511 20.304 16.2897 20.304C16.6283 20.304 16.9017 20.5748 16.9017 20.9101Z" fill="#007838"/>
<path d="M13.749 31.9975C13.6537 31.9975 13.5584 31.9702 13.4757 31.9156C13.2575 31.774 8.07832 28.3936 4.75012 23.2373C4.58459 22.9815 4.42407 22.7232 4.27108 22.4649C4.22593 22.3879 4.20085 22.2985 4.20085 22.2091V22.1817C4.20085 22.0849 4.20085 16.9907 4.20085 16.6802C4.19082 16.4964 4.14066 15.1329 4.80279 14.1493C6.46563 11.6755 10.6215 11.5091 14.2657 13.7668C17.92 16.032 19.6154 19.8942 18.0454 22.3755C16.8791 24.2184 14.2482 24.8418 11.3564 24.0123V26.1632C11.3564 26.4364 11.1306 26.6599 10.8547 26.6599C10.5789 26.6599 10.3531 26.4364 10.3531 26.1632V23.3267C10.3531 23.1653 10.4334 23.0138 10.5663 22.9194C10.7018 22.8275 10.8723 22.8052 11.0253 22.8598C13.6763 23.816 16.212 23.4013 17.1926 21.8489C18.4692 19.8321 16.9142 16.5834 13.7315 14.6088C10.6039 12.669 6.97226 12.7112 5.63547 14.6982C5.13134 15.4483 5.20157 16.6181 5.20157 16.6306C5.20157 16.6405 5.20157 16.6529 5.20157 16.6628C5.20157 17.1745 5.20157 21.3248 5.20157 22.0749C5.32697 22.2836 5.45739 22.4922 5.59283 22.7008C8.37678 27.0126 12.633 30.1248 13.7465 30.8972C14.8601 30.1248 19.1163 27.0126 21.9003 22.7008C26.184 16.0643 26.4875 8.57576 26.4875 6.58877C25.1532 6.65831 21.6369 6.73034 19.1991 5.78403C16.8891 4.88491 14.6394 2.37384 13.744 1.28596C12.8487 2.37136 10.6014 4.88491 8.28899 5.78403C5.85116 6.73282 2.33485 6.65831 1.00057 6.58877C1.00057 7.70894 1.09086 10.5826 1.93858 14.0425C2.00379 14.3083 1.83826 14.5765 1.5699 14.6436C1.30153 14.7081 1.03066 14.5442 0.962944 14.2785C-0.15816 9.68103 0.00486447 6.18143 0.0123887 6.03489C0.0199128 5.90077 0.0801064 5.7741 0.182937 5.68468C0.285767 5.59527 0.418695 5.55304 0.556638 5.56298C0.601783 5.56546 5.15141 5.93802 7.92783 4.85759C10.5789 3.82684 13.3202 0.222916 13.3478 0.188144C13.5359 -0.0627147 13.9622 -0.0627147 14.1528 0.188144C14.1804 0.2254 16.9192 3.82932 19.5728 4.86008C22.3492 5.94051 26.8988 5.57043 26.944 5.56546C27.0794 5.55304 27.2148 5.59775 27.3177 5.68716C27.4205 5.77658 27.4832 5.90077 27.4882 6.03737C27.5083 6.40993 27.897 15.272 22.753 23.2398C19.4248 28.3961 14.2456 31.7765 14.0274 31.918C13.9447 31.9727 13.8494 32 13.7541 32L13.749 31.9975Z" fill="#007838"/>
<path d="M19.3622 9.85986H18.211V8.71982C18.211 8.35967 17.915 8.06908 17.5539 8.06908C17.1927 8.06908 16.8943 8.36216 16.8943 8.71982V9.85986H15.743C15.3794 9.85986 15.0859 10.1529 15.0859 10.5106C15.0859 10.8683 15.3819 11.1613 15.743 11.1613H16.8943V12.3014C16.8943 12.6615 17.1902 12.9521 17.5539 12.9521C17.9175 12.9521 18.211 12.659 18.211 12.3014V11.1613H19.3622C19.7259 11.1613 20.0193 10.8683 20.0193 10.5106C20.0193 10.1529 19.7233 9.85986 19.3622 9.85986Z" fill="#007838"/>
<path d="M22.6704 12.5821H22.076V11.9934C22.076 11.8071 21.923 11.6581 21.7374 11.6581C21.5518 11.6581 21.3988 11.8096 21.3988 11.9934V12.5821H20.8044C20.6163 12.5821 20.4658 12.7336 20.4658 12.9174C20.4658 13.1012 20.6188 13.2527 20.8044 13.2527H21.3988V13.8413C21.3988 14.0276 21.5518 14.1766 21.7374 14.1766C21.923 14.1766 22.076 14.0251 22.076 13.8413V13.2527H22.6704C22.8585 13.2527 23.009 13.1012 23.009 12.9174C23.009 12.7336 22.856 12.5821 22.6704 12.5821Z" fill="#007838"/>
<path d="M21.7824 8.86885H21.3535V8.44413C21.3535 8.31 21.2432 8.2032 21.1103 8.2032C20.9773 8.2032 20.867 8.31249 20.867 8.44413V8.86885H20.4381C20.3027 8.86885 20.1948 8.97813 20.1948 9.10977C20.1948 9.24141 20.3052 9.35069 20.4381 9.35069H20.867V9.77541C20.867 9.90954 20.9773 10.0163 21.1103 10.0163C21.2432 10.0163 21.3535 9.90705 21.3535 9.77541V9.35069H21.7824C21.9179 9.35069 22.0257 9.24141 22.0257 9.10977C22.0257 8.97813 21.9154 8.86885 21.7824 8.86885Z" fill="#007838"/>
<path d="M46.7606 16.9469H34.3052V14.4833H36.0652V7.29366H34.5252V4.83011H46.3883V7.29366H44.8483V14.4833H46.7775V16.9469H46.7606ZM56.6606 27.7732C55.476 27.3207 54.1898 26.818 52.836 26.2649C51.4652 25.6951 50.196 25.1421 49.0113 24.589C48.7067 24.4549 48.436 24.2873 48.1821 24.1365C47.9452 23.9689 47.6913 23.8013 47.4375 23.6337C47.1837 23.8181 46.9298 23.9857 46.6929 24.1365C46.456 24.3041 46.1683 24.4549 45.8637 24.589C44.679 25.1421 43.3929 25.6951 42.039 26.2649C40.6852 26.8347 39.399 27.3375 38.2144 27.7732L36.8267 25.6281C37.3852 25.4102 37.9944 25.1756 38.6713 24.9074C39.3313 24.6393 40.0083 24.3544 40.6852 24.0695C41.3621 23.7846 42.0221 23.4997 42.6483 23.2148C43.2744 22.9298 43.8498 22.6617 44.3744 22.4103C45.0344 22.0751 45.4744 21.7232 45.6775 21.3545C45.8806 20.9858 45.9821 20.5166 45.9821 19.9467V18.9077H48.9098V19.9467C48.9098 20.2316 48.9267 20.483 48.9606 20.7177C48.9944 20.9355 49.079 21.1534 49.1975 21.3545C49.316 21.5556 49.4852 21.74 49.6883 21.9243C49.8914 22.1087 50.179 22.2763 50.5175 22.4271C51.0252 22.6785 51.6006 22.9466 52.2437 23.2315C52.8867 23.5164 53.5467 23.8013 54.2237 24.0862C54.9006 24.3711 55.5606 24.656 56.2206 24.9242C56.8806 25.1923 57.4898 25.427 58.0821 25.6448L56.6944 27.79L56.6606 27.7732ZM42.039 14.4666V7.27691H38.8406V14.4666H42.039ZM51.5667 17.9859H48.7744V12.003H45.8975V9.53939H48.7744V4.47816H51.5667V17.9859ZM56.559 19.1926H53.7498V4.21001H56.559V19.1926Z" fill="#007838"/>
<path d="M73.0931 12.3549C73.0931 13.2599 72.9746 14.0643 72.7208 14.7347C72.4669 15.405 72.0269 16.0754 71.35 16.729C69.81 18.2541 68.2361 19.6619 66.6115 20.9523C64.9869 22.2427 63.2777 23.5332 61.4669 24.8236L59.8423 22.9131C60.7054 22.2763 61.5684 21.6227 62.4315 20.969C63.2946 20.3154 64.1069 19.6619 64.9023 18.9915C65.6977 18.3211 66.4423 17.6843 67.1531 17.0642C67.8638 16.4441 68.49 15.824 69.0484 15.2375C69.2684 15.0196 69.4715 14.7515 69.6408 14.433H59.9946V11.9695H70.25V7.84672H60.4007V5.38313H73.0761V12.3549H73.0931ZM80.5223 27.6727H77.7131V4.21001H80.5223V27.6727Z" fill="#007838"/>
<path d="M99.5608 23.4494H84.127V20.9858H86.7331V7.84672H84.3977V5.38313H99.1547V7.84672H96.667V20.9858H99.5608V23.4494ZM93.8408 20.9858V7.84672H89.5423V20.9858H93.8408ZM105.433 27.6727H102.624V15.2542H98.5285V12.7404H102.624V4.21001H105.433V27.6727Z" fill="#007838"/>
</svg>
